<svg width="20" height="18" viewBox="0 0 20 18" fill="none" xmlns="http://www.w3.org/2000/svg">
<path d="M18.125 16.5H1.875C0.8375 16.5 0 15.6625 0 14.625V3.375C0 2.3375 0.8375 1.5 1.875 1.5H18.125C19.1625 1.5 20 2.3375 20 3.375V14.625C20 15.6625 19.1625 16.5 18.125 16.5ZM1.875 2.75C1.525 2.75 1.25 3.025 1.25 3.375V14.625C1.25 14.975 1.525 15.25 1.875 15.25H18.125C18.475 15.25 18.75 14.975 18.75 14.625V3.375C18.75 3.025 18.475 2.75 18.125 2.75H1.875Z" fill="#372E9E"/>
<path d="M9.99978 11.4493C9.12478 11.4493 8.32478 11.0993 7.72478 10.4618L1.16228 3.48679C0.924782 3.23679 0.937282 2.83679 1.18728 2.59929C1.43728 2.36179 1.83728 2.37429 2.07478 2.62429L8.63728 9.59929C9.34978 10.3618 10.6498 10.3618 11.3623 9.59929L17.9248 2.63679C18.1623 2.38679 18.5623 2.37429 18.8123 2.61179C19.0623 2.84929 19.0748 3.24929 18.8373 3.49929L12.2748 10.4743C11.6748 11.1118 10.8748 11.4618 9.99978 11.4618V11.4493Z" fill="#372E9E"/>
</svg>
