<svg width="22" height="22" viewBox="0 0 22 22" fill="none" xmlns="http://www.w3.org/2000/svg">
<path d="M11 6.55556C9.15889 6.55556 7.66667 7.55 7.66667 8.77778C7.66667 10.0056 9.15889 11 11 11C12.8411 11 14.3333 11.9944 14.3333 13.2222C14.3333 14.45 12.8411 15.4444 11 15.4444M11 6.55556C12.2333 6.55556 13.3111 7.00222 13.8878 7.66667M11 6.55556V5.44444M11 6.55556V15.4444M11 15.4444V16.5556M11 15.4444C9.76667 15.4444 8.68889 14.9978 8.11222 14.3333M21 11C21 12.3132 20.7413 13.6136 20.2388 14.8268C19.7362 16.0401 18.9997 17.1425 18.0711 18.0711C17.1425 18.9997 16.0401 19.7362 14.8268 20.2388C13.6136 20.7413 12.3132 21 11 21C9.68678 21 8.38642 20.7413 7.17317 20.2388C5.95991 19.7362 4.85752 18.9997 3.92893 18.0711C3.00035 17.1425 2.26375 16.0401 1.7612 14.8268C1.25866 13.6136 1 12.3132 1 11C1 8.34783 2.05357 5.8043 3.92893 3.92893C5.8043 2.05357 8.34784 1 11 1C13.6522 1 16.1957 2.05357 18.0711 3.92893C19.9464 5.8043 21 8.34783 21 11Z" stroke="white" stroke-width="1.5" stroke-linecap="round" stroke-linejoin="round"/>
</svg>
