<svg width="28" height="28" viewBox="0 0 28 28" fill="none" xmlns="http://www.w3.org/2000/svg">
<path d="M15.3688 0.666748C16.8688 0.670748 17.6302 0.678748 18.2875 0.697415L18.5462 0.706748C18.8448 0.717415 19.1395 0.730748 19.4955 0.746748C20.9142 0.813415 21.8822 1.03741 22.7315 1.36675C23.6115 1.70541 24.3528 2.16408 25.0942 2.90408C25.7724 3.57039 26.2971 4.37671 26.6315 5.26675C26.9608 6.11608 27.1848 7.08408 27.2515 8.50408C27.2675 8.85875 27.2808 9.15341 27.2915 9.45341L27.2995 9.71208C27.3195 10.3681 27.3275 11.1294 27.3302 12.6294L27.3315 13.6241V15.3707C27.3347 16.3433 27.3245 17.3158 27.3008 18.2881L27.2928 18.5467C27.2822 18.8467 27.2688 19.1414 27.2528 19.4961C27.1862 20.9161 26.9595 21.8827 26.6315 22.7334C26.2971 23.6235 25.7724 24.4298 25.0942 25.0961C24.4278 25.7743 23.6215 26.299 22.7315 26.6334C21.8822 26.9627 20.9142 27.1868 19.4955 27.2534L18.5462 27.2934L18.2875 27.3014C17.6302 27.3201 16.8688 27.3294 15.3688 27.3321L14.3742 27.3334H12.6288C11.6558 27.3368 10.6829 27.3266 9.71016 27.3027L9.45149 27.2948C9.13497 27.2828 8.81852 27.269 8.50215 27.2534C7.08349 27.1868 6.11549 26.9627 5.26482 26.6334C4.37526 26.2988 3.56941 25.7742 2.90349 25.0961C2.22475 24.4299 1.69963 23.6236 1.36482 22.7334C1.03549 21.8841 0.811487 20.9161 0.744821 19.4961L0.704821 18.5467L0.698154 18.2881C0.673576 17.3158 0.662463 16.3433 0.664821 15.3707V12.6294C0.66113 11.6569 0.670909 10.6843 0.694154 9.71208L0.703488 9.45341C0.714154 9.15341 0.727488 8.85875 0.743488 8.50408C0.810154 7.08408 1.03415 6.11741 1.36349 5.26675C1.69908 4.37635 2.22512 3.57 2.90482 2.90408C3.57036 2.22615 4.37574 1.70151 5.26482 1.36675C6.11549 1.03741 7.08215 0.813415 8.50215 0.746748C8.85682 0.730748 9.15282 0.717415 9.45149 0.706748L9.71016 0.698748C10.6824 0.675058 11.6549 0.664835 12.6275 0.668081L15.3688 0.666748ZM13.9982 7.33342C12.23 7.33342 10.5344 8.03579 9.28411 9.28604C8.03387 10.5363 7.33149 12.232 7.33149 14.0001C7.33149 15.7682 8.03387 17.4639 9.28411 18.7141C10.5344 19.9644 12.23 20.6667 13.9982 20.6667C15.7663 20.6667 17.462 19.9644 18.7122 18.7141C19.9624 17.4639 20.6648 15.7682 20.6648 14.0001C20.6648 12.232 19.9624 10.5363 18.7122 9.28604C17.462 8.03579 15.7663 7.33342 13.9982 7.33342ZM13.9982 10.0001C14.5234 9.99999 15.0436 10.1034 15.5289 10.3043C16.0143 10.5052 16.4553 10.7998 16.8268 11.1712C17.1983 11.5426 17.493 11.9835 17.6941 12.4687C17.8952 12.954 17.9987 13.4741 17.9988 13.9994C17.9989 14.5247 17.8955 15.0449 17.6946 15.5302C17.4937 16.0155 17.1991 16.4565 16.8277 16.828C16.4563 17.1995 16.0154 17.4942 15.5302 17.6953C15.0449 17.8964 14.5248 18 13.9995 18.0001C12.9386 18.0001 11.9212 17.5787 11.1711 16.8285C10.4209 16.0784 9.99949 15.0609 9.99949 14.0001C9.99949 12.9392 10.4209 11.9218 11.1711 11.1717C11.9212 10.4215 12.9386 10.0001 13.9995 10.0001M20.9995 5.33342C20.5575 5.33342 20.1335 5.50901 19.821 5.82157C19.5084 6.13413 19.3328 6.55805 19.3328 7.00008C19.3328 7.44211 19.5084 7.86603 19.821 8.17859C20.1335 8.49115 20.5575 8.66675 20.9995 8.66675C21.4415 8.66675 21.8654 8.49115 22.178 8.17859C22.4906 7.86603 22.6662 7.44211 22.6662 7.00008C22.6662 6.55805 22.4906 6.13413 22.178 5.82157C21.8654 5.50901 21.4415 5.33342 20.9995 5.33342Z" fill="white"/>
</svg>
