<svg width="29" height="30" viewBox="0 0 29 30" fill="none" xmlns="http://www.w3.org/2000/svg">
<path d="M15.8947 0.714844C17.5019 0.719129 18.3176 0.727701 19.0219 0.747701L19.299 0.757701C19.619 0.769129 19.9347 0.783415 20.3162 0.800558C21.8362 0.871987 22.8733 1.11199 23.7833 1.46484C24.7262 1.8277 25.5205 2.31913 26.3147 3.11199C27.0415 3.82589 27.6036 4.6898 27.9619 5.64341C28.3147 6.55342 28.5547 7.59056 28.6262 9.11199C28.6433 9.49199 28.6576 9.8077 28.669 10.1291L28.6776 10.4063C28.699 11.1091 28.7076 11.9248 28.7105 13.532L28.7119 14.5977V16.4691C28.7154 17.5111 28.7044 18.5531 28.679 19.5948L28.6705 19.872C28.659 20.1934 28.6447 20.5091 28.6276 20.8891C28.5562 22.4106 28.3133 23.4463 27.9619 24.3577C27.6036 25.3113 27.0415 26.1752 26.3147 26.8891C25.6008 27.6158 24.7369 28.178 23.7833 28.5363C22.8733 28.8891 21.8362 29.1291 20.3162 29.2006L19.299 29.2434L19.0219 29.252C18.3176 29.272 17.5019 29.282 15.8947 29.2848L14.829 29.2863H12.959C11.9165 29.2899 10.8741 29.279 9.83189 29.2534L9.55475 29.2448C9.21562 29.232 8.87656 29.2172 8.5376 29.2006C7.0176 29.1291 5.98046 28.8891 5.06903 28.5363C4.11593 28.1778 3.25252 27.6157 2.53903 26.8891C1.81181 26.1754 1.24919 25.3114 0.890461 24.3577C0.537604 23.4477 0.297604 22.4106 0.226175 20.8891L0.183318 19.872L0.176175 19.5948C0.149841 18.5532 0.137935 17.5111 0.140461 16.4691V13.532C0.136507 12.49 0.146984 11.448 0.17189 10.4063L0.18189 10.1291C0.193318 9.8077 0.207604 9.49199 0.224747 9.11199C0.296175 7.59056 0.536175 6.55484 0.889032 5.64341C1.2486 4.68941 1.81221 3.82547 2.54046 3.11199C3.25354 2.38563 4.11644 1.82352 5.06903 1.46484C5.98046 1.11199 7.01618 0.871987 8.5376 0.800558C8.9176 0.783415 9.23475 0.769129 9.55475 0.757701L9.83189 0.749129C10.8736 0.723748 11.9156 0.712794 12.9576 0.716272L15.8947 0.714844ZM14.4262 7.8577C12.5318 7.8577 10.715 8.61025 9.37541 9.9498C8.03587 11.2893 7.28332 13.1062 7.28332 15.0006C7.28332 16.895 8.03587 18.7118 9.37541 20.0513C10.715 21.3909 12.5318 22.1434 14.4262 22.1434C16.3206 22.1434 18.1374 21.3909 19.4769 20.0513C20.8165 18.7118 21.569 16.895 21.569 15.0006C21.569 13.1062 20.8165 11.2893 19.4769 9.9498C18.1374 8.61025 16.3206 7.8577 14.4262 7.8577ZM14.4262 10.7148C14.989 10.7148 15.5463 10.8255 16.0663 11.0408C16.5863 11.2561 17.0588 11.5717 17.4568 11.9696C17.8549 12.3675 18.1706 12.8399 18.3861 13.3598C18.6016 13.8798 18.7125 14.437 18.7126 14.9998C18.7127 15.5627 18.6019 16.12 18.3866 16.64C18.1714 17.16 17.8558 17.6325 17.4579 18.0305C17.06 18.4285 16.5876 18.7443 16.0676 18.9598C15.5477 19.1752 14.9904 19.2862 14.4276 19.2863C13.291 19.2863 12.2009 18.8347 11.3971 18.031C10.5934 17.2273 10.1419 16.1372 10.1419 15.0006C10.1419 13.8639 10.5934 12.7738 11.3971 11.9701C12.2009 11.1664 13.291 10.7148 14.4276 10.7148M21.9276 5.71484C21.454 5.71484 20.9998 5.90298 20.6649 6.23787C20.33 6.57275 20.1419 7.02696 20.1419 7.50056C20.1419 7.97416 20.33 8.42836 20.6649 8.76325C20.9998 9.09813 21.454 9.28627 21.9276 9.28627C22.4012 9.28627 22.8554 9.09813 23.1903 8.76325C23.5252 8.42836 23.7133 7.97416 23.7133 7.50056C23.7133 7.02696 23.5252 6.57275 23.1903 6.23787C22.8554 5.90298 22.4012 5.71484 21.9276 5.71484Z" fill="#372E9E"/>
</svg>
