<svg width="26" height="26" viewBox="0 0 26 26" fill="none" xmlns="http://www.w3.org/2000/svg">
<path d="M20.974 18.417C21.7822 18.9111 22.2077 19.4715 22.2077 20.042C22.2077 20.6125 21.7822 21.1729 20.974 21.667C20.1658 22.1611 19.0034 22.5713 17.6035 22.8566C16.2037 23.1418 14.6158 23.292 12.9994 23.292C11.383 23.292 9.79503 23.1418 8.39518 22.8566C6.99534 22.5713 5.8329 22.1611 5.0247 21.667C4.2165 21.1729 3.79102 20.6125 3.79102 20.042C3.79102 19.4715 4.2165 18.9111 5.0247 18.417" stroke="white" stroke-linecap="round"/>
<path d="M21.125 10.833C21.125 16.3074 15.0955 19.9874 13.4247 20.902C13.1563 21.0489 12.8437 21.0489 12.5753 20.902C10.9045 19.9874 4.875 16.3074 4.875 10.833C4.875 5.95801 8.81184 2.70801 13 2.70801C17.3333 2.70801 21.125 5.95801 21.125 10.833Z" stroke="white" stroke-width="1.5"/>
<circle cx="12.9993" cy="10.8333" r="3.58333" stroke="white" stroke-width="1.5"/>
</svg>
