<svg width="120" height="122" viewBox="0 0 120 122" fill="none" xmlns="http://www.w3.org/2000/svg">
<g clip-path="url(#clip0_308_580)">
<path d="M86.397 105.103C86.397 102.832 86.4377 100.565 86.397 98.2947C86.3747 97.3168 86.5748 96.9019 87.6934 96.9093C90.2864 96.9093 90.2864 96.8537 90.2864 99.5023C90.2864 103.007 90.2235 106.514 90.3198 110.015C90.3568 111.349 89.9197 111.608 88.6714 111.638C87.0637 111.678 85.9487 111.267 84.9671 109.889C83.3965 107.626 81.5777 105.533 79.5292 102.944C79.5292 105.537 79.3885 107.707 79.5737 109.852C79.7293 111.66 78.8069 111.641 77.5104 111.615C76.3139 111.589 75.4545 111.686 75.5212 109.945C75.6768 106.077 75.6212 102.199 75.5434 98.3281C75.5212 97.1575 75.9139 96.9871 76.9918 96.8834C78.8625 96.7056 80.0478 97.3909 81.0961 98.8911C82.6297 101.084 84.3596 103.14 86.0043 105.255L86.397 105.103Z" fill="#1F1B3B"/>
<path d="M97.0608 102.932C97.0608 105.807 97.0016 108.078 97.0608 110.341C97.1312 112.271 95.7384 111.452 94.8827 111.571C94.027 111.689 93.0973 111.823 93.138 110.285C93.2491 106.229 93.2121 102.169 93.138 98.1095C93.1195 97.0797 93.5084 96.9982 94.4049 96.9056C96.2089 96.7352 97.4794 97.202 98.5574 98.8059C100.087 101.073 101.928 103.129 103.947 105.67C103.947 102.851 104.032 100.484 103.917 98.1317C103.843 96.6722 104.762 96.8204 105.551 96.976C106.34 97.1316 107.818 96.0907 107.807 98.065C107.785 102.184 107.785 106.305 107.807 110.426C107.807 111.274 107.562 111.537 106.666 111.626C104.814 111.775 103.454 111.345 102.332 109.674C100.876 107.437 99.0649 105.448 97.0608 102.932Z" fill="#1F1B3B"/>
<path d="M81.3398 47.798C79.4876 47.4276 78.5134 46.5682 78.8616 44.7346C79.0135 43.9159 78.5208 43.527 77.9022 43.1565C66.0226 36.0999 54.1245 36.4222 42.1967 43.038C41.4077 43.4751 40.9372 43.99 41.1224 44.9198C41.4929 46.8053 40.5853 47.7573 38.5961 48.1203C38.5961 46.4274 38.6258 44.7494 38.5961 43.0714C38.5776 42.2897 39.1481 42.0082 39.6407 41.6934C51.4463 34.1663 66.7857 32.7438 80.473 41.7934C80.7677 41.9458 81.0104 42.1826 81.1701 42.4736C81.3298 42.7645 81.3991 43.0964 81.3694 43.427C81.2916 44.8346 81.3398 46.2385 81.3398 47.798Z" fill="#201C3D"/>
<path d="M110.768 104.103C110.768 102.132 110.805 100.162 110.768 98.1762C110.738 97.2464 110.975 96.8685 111.987 96.9056C114.013 96.9797 116.061 97.0093 118.073 96.9056C119.477 96.8278 119.184 97.7353 119.125 98.4577C119.066 99.18 119.692 100.343 118.11 100.236C117.369 100.184 116.628 100.284 115.887 100.214C114.95 100.128 114.639 100.425 114.624 101.417C114.624 102.529 115.106 102.629 115.954 102.551C116.382 102.497 116.815 102.497 117.243 102.551C117.795 102.636 118.647 102.155 118.829 102.984C119.01 103.814 119.306 105.04 118.688 105.637C118.006 106.292 116.81 105.851 115.843 105.851C115.024 105.851 114.643 106.003 114.632 106.963C114.632 107.989 114.887 108.444 115.961 108.307C116.392 108.278 116.824 108.278 117.254 108.307C119.029 108.307 119.703 109.341 119.14 111.071C118.947 111.656 118.547 111.593 118.132 111.593C116.039 111.593 113.946 111.556 111.857 111.612C110.883 111.641 110.746 111.167 110.768 110.374C110.798 108.278 110.768 106.185 110.768 104.103Z" fill="#201B3B"/>
<path d="M6.18561 96.2055C6.50418 96.2648 7.35986 96.3722 8.18592 96.5759C10.2529 97.0908 10.2899 97.2871 9.27867 99.2097C8.86379 100.002 8.48225 100.377 7.60064 99.8283C7.22166 99.6288 6.80541 99.5103 6.37823 99.4801C5.67071 99.3912 4.94838 99.5245 4.67426 100.254C4.35569 101.11 5.08914 101.447 5.69294 101.736C6.40833 102.088 7.14293 102.4 7.89328 102.669C9.72319 103.321 10.7604 104.629 10.7419 106.533C10.7233 108.437 10.001 110.126 8.04515 110.978C5.52995 112.06 3.12587 111.645 0.762546 110.519C-0.74139 109.804 0.43657 108.982 0.762546 108.296C1.03296 107.704 1.15891 106.529 2.37391 107.392C3.07571 107.9 3.90621 108.201 4.77057 108.259C5.51143 108.307 6.29674 108.1 6.53011 107.248C6.76347 106.396 6.15968 106.014 5.52254 105.711C4.9706 105.444 4.38903 105.244 3.81857 105.022C1.11075 103.973 0.158752 102.499 0.603265 100.039C1.04778 97.5798 2.85176 96.1833 6.18561 96.2055Z" fill="#1F1B3B"/>
<path d="M80.9571 62.2818C81.0092 64.4542 80.3735 66.5875 79.1408 68.377C77.9081 70.1665 76.1414 71.5207 74.0931 72.2463C74.9784 70.7646 75.8045 69.4088 76.6268 68.0382C74.7376 69.1754 73.7523 71.0016 72.4855 72.8093C71.6964 71.0609 72.5966 69.4755 72.4855 67.9086C73.6523 63.9709 72.8559 59.9296 73.1189 55.9438C73.1744 55.1066 72.7781 54.0916 73.8597 53.5434V66.0268C75.523 64.7896 76.8676 63.6783 78.4493 62.9374C79.0828 62.6411 78.8605 61.9743 78.8679 61.4557C78.9124 58.822 78.9346 56.1882 78.9605 53.5508C79.8829 53.7879 79.6421 54.5917 79.6791 55.1807C79.7606 56.6934 79.7606 58.2094 79.6791 59.7221C79.6495 60.8297 79.9422 61.7113 80.9571 62.2818Z" fill="#EAB744"/>
<path d="M56.452 21.8236C51.3607 24.4714 47.3666 28.8303 45.1725 34.1329C44.4316 35.885 43.3426 36.6296 41.4941 36.9297C42.4647 32.6846 44.5502 29.1507 47.2728 25.9465C48.9508 23.9795 50.9512 22.3644 52.9922 20.779C54.2294 19.8159 55.0925 19.7937 55.8741 21.2124C56.0038 21.4495 56.0038 21.8384 56.415 21.857L56.452 21.8236Z" fill="#211C3D"/>
<path d="M78.6203 36.8259C76.7681 36.4111 75.6569 35.8739 74.916 34.0922C72.9342 29.2544 69.5374 25.502 65.1071 22.683C64.7367 22.4496 63.6587 22.2755 64.3662 21.4495C64.8441 20.8976 65.1664 19.5492 66.2628 20.2641C72.3267 24.2129 76.594 29.5322 78.6203 36.8259Z" fill="#211C3D"/>
<path d="M41.2453 62.6966C43.1789 63.9746 45.32 65.0044 46.572 67.1047C46.961 67.0639 47.3129 67.1047 47.4129 67.564C47.4129 67.6233 47.2981 67.6566 47.1462 67.6307C47.3499 69.2235 48.2056 70.7608 47.5166 72.6537C46.0571 71.0497 45.2237 69.1124 43.3345 68.0604C44.0976 69.3458 44.8643 70.6275 45.683 72.0017C41.9157 71.1349 39.1486 67.0602 38.9375 62.2706C39.8858 61.4409 40.5155 62.3447 41.2453 62.6966Z" fill="#EAB744"/>
<path d="M67.6401 75.8468L67.3326 75.106C67.3845 74.0206 68.1698 73.0945 68.0735 71.724C66.6362 73.439 66.1806 75.406 65.2694 77.3619C63.8691 74.6948 64.3951 72.3611 65.6213 70.0607C65.5583 69.7348 65.6213 69.4866 65.9917 69.4384C67.4289 67.3863 69.6219 66.1046 71.2962 64.3117C72.3853 65.5304 71.9296 66.8862 71.6407 68.2234C71.2147 71.2424 70.096 73.8984 67.6401 75.8468Z" fill="#EAB744"/>
<path d="M54.4632 69.9496C55.3708 72.3499 56.1524 74.7651 54.8114 77.2655C53.8113 77.3026 53.7817 76.4395 53.5483 75.832C53.0456 74.3935 52.4262 72.9985 51.6961 71.661C51.5406 71.4646 51.3442 71.8499 51.5109 71.661C51.5628 71.6091 51.6147 71.635 51.685 71.7313C52.3851 72.6907 52.7111 73.8169 53.063 74.9244C53.1927 75.3245 53.3853 75.8468 52.9815 76.1283C52.4074 76.5321 52.1592 75.8505 51.7962 75.5949C51.6547 75.4738 51.5301 75.3342 51.4257 75.18C49.7181 73.139 48.4808 70.8979 48.4364 68.1419C47.803 66.2527 47.9511 65.6526 49.1995 65.0007C51.2702 66.3231 52.7963 68.2308 54.4855 69.9644L54.4632 69.9496Z" fill="#EAB744"/>
<path d="M42.1913 80.6512C40.4984 80.6253 39.1501 81.8144 37.4646 81.9403C36.3052 82.0255 35.1458 82.0699 33.9826 82.1033C32.9454 82.1329 32.6676 81.8255 33.1862 80.8142C34.8087 77.6544 38.9315 75.3837 42.9803 75.7171L38.2944 78.8102C40.8874 78.2694 42.6395 77.0432 44.6509 75.8801C44.5954 77.1877 43.9731 78.0397 43.4026 78.9287C43.1915 79.2584 42.4247 79.4288 42.9581 80.0659C42.9803 80.603 42.7877 80.9031 42.1913 80.6512Z" fill="#E9B746"/>
<path d="M76.6572 79.114C76.0497 78.2027 75.3755 77.3285 75.2422 75.8987C77.2536 77.0099 79.0391 78.2509 81.6432 78.8398L77.1091 75.8172C80.7282 75.2171 85.4697 77.7878 86.7884 80.892C87.1922 81.8403 86.8477 82.0663 85.9475 82.107C83.6727 82.2439 81.3957 81.8757 79.2798 81.0291C78.1204 80.7846 77.0573 80.4179 76.6572 79.114Z" fill="#E9B745"/>
<path d="M54.4617 69.9793C54.4617 64.9377 54.4617 59.8962 54.4617 54.8547C54.4617 53.9471 54.3691 53.2582 55.7285 53.247C57.088 53.2359 57.0399 53.836 57.0324 54.7917C56.9991 59.0961 57.0324 63.4005 57.0324 67.7048C57.0324 70.2978 57.0324 70.2978 54.4395 69.9496L54.4617 69.9793Z" fill="#221D3E"/>
<path d="M66.01 69.4458L65.6395 70.0681C63.354 70.1941 63.354 70.1941 63.3577 67.7307C63.3577 63.4227 63.3577 59.1183 63.3577 54.8102C63.3577 53.8471 63.3577 53.2544 64.669 53.2507C66.0729 53.2507 65.8951 54.0175 65.9025 54.8806C65.9322 59.7332 65.968 64.5883 66.01 69.4458Z" fill="#231E3F"/>
<path d="M73.2281 80.303L70.2906 78.2361C72.3455 78.1816 74.3818 78.6372 76.2175 79.5622C77.225 80.0252 78.2993 80.3956 78.8401 81.4921C79.5217 82.4108 80.8589 83.3924 80.3959 84.3851C80.0255 85.2149 78.403 84.7556 77.3436 84.6963C74.3579 84.5815 71.6464 83.7554 69.7905 81.218C69.2756 80.5142 68.6793 79.7363 68.9682 78.7028L72.5095 80.6698C73.2689 80.9957 74.1394 80.9994 74.5209 81.2624C74.269 81.1365 73.5467 81.0031 73.2281 80.303Z" fill="#EAB744"/>
<path d="M42.1913 80.6513C42.358 80.626 42.5156 80.5591 42.6496 80.4568C42.7836 80.3545 42.8897 80.2201 42.9581 80.066C44.8732 78.8214 46.9735 78.2361 49.6999 78.2139L46.7365 80.3068C46.4216 80.7402 45.903 80.9402 45.677 81.1884C46.0252 80.6254 46.8957 81.0847 47.4662 80.6772L51.1445 78.625C50.7519 81.0773 49.3517 82.5849 47.3514 83.5925C45.0806 84.7334 42.6247 84.8223 40.1428 84.7297C39.276 84.7001 39.2242 84.3148 39.5798 83.6851C40.2466 82.4923 40.9726 81.3551 42.1913 80.6513Z" fill="#EAB744"/>
<path d="M87.0147 66.8972C85.733 68.5567 83.9624 69.3828 81.8843 69.7791L84.8477 66.1897C82.6659 67.2195 81.6583 68.9309 80.0581 70.3015C79.8506 67.5307 80.9545 65.6304 82.8659 64.1375C84.2995 63.0705 85.9394 62.3136 87.6815 61.915C88.1889 61.7853 88.7927 61.3001 89.2373 61.7112C89.6818 62.1224 89.1224 62.7188 89.0965 63.2448C89.0232 63.5423 88.8978 63.8245 88.7261 64.0783C88.489 65.2266 88.1704 66.3194 87.0147 66.8972Z" fill="#E9B745"/>
<path d="M31.2983 64.4673C30.8835 63.5931 30.1093 62.4855 30.7612 61.7817C31.3243 61.1779 32.4652 61.9706 33.3097 62.2484C37.7734 63.7116 39.9774 66.3528 39.896 70.2052C38.3068 68.9902 37.2844 67.2603 35.3916 66.5195L38.4068 70.2237C35.8731 69.3903 34.0321 68.3716 32.643 66.6121C32.2874 66.362 31.9854 66.0435 31.7545 65.6752C31.5236 65.3069 31.3685 64.8963 31.2983 64.4673Z" fill="#E9B745"/>
<path d="M27.8318 74.7911C30.1692 73.9798 32.4695 72.9389 35.6515 73.6316L30.973 75.8542C33.3697 75.7171 35.0477 74.88 36.7702 74.1243C36.5183 76.0876 34.818 77.7508 32.3621 78.3176C30.3655 78.7769 28.3393 78.6213 26.3278 78.3176C25.2573 78.1583 25.1536 77.6545 25.8796 76.8914C26.5464 76.1876 27.1984 75.4653 27.8577 74.7503L27.8318 74.7911Z" fill="#E9B745"/>
<path d="M94.6428 77.8805C89.5716 79.8067 84.5931 78.2509 82.9336 74.1762C84.845 74.7726 86.5416 75.7431 88.5308 75.6579L84.4672 73.728C87.7417 72.5278 92.6647 74.6059 94.6428 77.8805Z" fill="#E9B746"/>
<path d="M96.831 118.95C97.431 117.69 97.9422 116.727 98.3571 115.708C98.6386 115.008 99.098 114.823 99.7796 114.842C100.58 114.864 100.58 115.442 100.706 115.971C101.006 117.227 101.339 118.472 101.613 119.731C101.706 120.146 102.072 120.78 101.243 120.843C100.613 120.898 99.8351 121.109 99.7277 120.046C99.6462 119.22 99.4869 118.405 99.2795 117.046C98.6609 118.35 98.283 119.22 97.8422 120.057C97.2495 121.169 96.4679 121.202 95.8456 120.135C95.3678 119.313 94.9825 118.431 94.5047 117.472C93.9157 118.342 94.012 119.172 93.9231 119.946C93.8305 120.776 93.3749 120.909 92.6636 120.876C91.7042 120.831 91.9821 120.224 92.0821 119.702C92.3229 118.435 92.6007 117.175 92.8229 115.905C92.9266 115.327 93.0192 114.834 93.786 114.819C94.4676 114.801 94.9418 114.956 95.2381 115.649C95.6678 116.697 96.1938 117.653 96.831 118.95Z" fill="#1F1B3B"/>
<path d="M49.1912 65.0155C48.054 65.849 48.7022 67.1158 48.4281 68.1567L47.1501 67.6307L46.5723 67.1047C46.613 63.0597 46.6389 59.0146 46.7019 54.9732C46.7019 54.2324 46.2574 53.2619 47.7947 53.2545C49.1541 53.2545 49.2356 53.8397 49.2208 54.8954C49.1727 58.27 49.1949 61.6409 49.1912 65.0155Z" fill="#231D3E"/>
<path d="M31.3 64.4672C31.9665 65.0242 32.4377 65.7795 32.6447 66.6231C32.1557 67.627 33.1299 68.6642 32.6447 69.568L30.5406 67.7344C30.0658 67.6105 29.6397 67.3458 29.3182 66.975C29.6802 67.303 29.9314 67.7353 30.0368 68.2122L31.3259 69.8569C28.4366 68.9161 26.5104 67.4899 25.2583 65.1859C25.0453 65.0043 24.8768 64.7764 24.7657 64.5195C24.6546 64.2626 24.6039 63.9837 24.6175 63.7041C24.4286 63.1485 23.8766 62.5336 24.3063 62.0261C24.8101 61.4482 25.5473 61.8705 26.1585 62.0632C27.6597 62.5395 29.068 63.2699 30.3221 64.2227C30.5925 64.4413 30.811 65.1044 31.3 64.4672Z" fill="#E9B745"/>
<path d="M87.0156 66.8973L88.7344 64.0931C88.7566 64.7636 88.9937 64.8155 89.4753 64.3821C90.7384 63.2708 92.2609 62.6262 93.8278 62.0558C95.1206 61.5853 95.7392 61.8483 95.4095 63.3337C95.1947 64.1598 95.3354 65.1451 94.3797 65.6415C93.324 67.6344 91.4978 68.6938 89.5642 69.6347C88.9456 69.005 88.9233 68.9939 89.2234 68.5234C89.5234 68.053 90.0791 67.6492 90.4124 67.1306C89.7012 67.927 89.0493 68.7864 88.0602 69.2791C87.6305 69.7088 87.249 70.1163 87.1786 69.0346C87.1416 68.3308 87.7602 67.5529 87.0156 66.8973Z" fill="#E9B745"/>
<path d="M27.8582 74.7651C25.1858 76.0215 22.1279 76.1824 19.3384 75.2134C17.9308 74.754 18.1938 74.2799 19.0384 73.565C20.7602 72.0531 23.012 71.287 25.2986 71.435C26.0394 71.4757 26.7803 71.435 27.4989 71.4535C27.936 72.2351 27.2285 72.1944 26.8359 72.3388C26.1654 72.5944 25.4801 72.8093 24.4429 73.1649C26.295 73.6057 27.6545 72.6648 29.0955 72.587C29.1473 73.6576 28.0175 73.9465 27.8508 74.8096L27.8582 74.7651Z" fill="#E9B749"/>
<path d="M95.5164 73.1982L92.327 72.0425C94.6459 70.6163 100.106 71.8758 101.432 74.0724C101.669 74.4428 101.691 74.6836 101.299 74.9689C98.5502 76.9766 92.6789 75.8542 90.8638 72.9574C90.8342 72.913 90.8638 72.8389 90.8379 72.6537C92.3233 72.5944 93.6791 73.6242 95.5164 73.1982Z" fill="#E8B749"/>
<path d="M56.4142 21.8681C57.97 22.9127 58.3886 23.861 56.9032 25.5501C55.1347 27.5376 54.0233 30.0229 53.7212 32.666C53.5583 34.1477 52.5025 34.1477 51.6246 34.0959C50.3652 33.9922 51.1245 32.9068 51.1986 32.3771C51.758 28.2839 53.8879 24.9389 56.4587 21.8273L56.4142 21.8681Z" fill="#221D3E"/>
<path d="M72.0281 68.2308C71.6206 66.9528 71.8577 65.6155 71.6836 64.3153C71.6836 61.389 71.6935 58.4589 71.7132 55.5251C71.7132 53.0136 71.7132 53.0136 74.247 53.5248C74.2173 57.455 74.1618 61.3853 74.1766 65.3155C74.1766 66.4564 73.9469 67.3677 72.8579 67.9085L72.0281 68.2308Z" fill="#261F40"/>
<path d="M69.0497 33.2476C69.0756 33.6181 69.1497 34.1626 68.6237 34.0255C67.9236 33.8403 66.7716 34.2922 66.5826 33.2847C65.9668 30.0167 64.5488 26.9529 62.4561 24.3685C61.7449 23.4535 63.0265 23.2572 63.3303 22.683C63.5711 22.2311 63.9304 22.1867 64.323 22.6645C66.8679 25.7613 68.6496 29.1951 69.0497 33.2476Z" fill="#231D3E"/>
<path d="M59.8404 0.92041C61.9666 2.9059 63.5447 4.88028 63.1446 7.78814C63.0483 8.46602 63.0187 9.15131 62.5075 9.64028C61.9963 10.1292 61.1369 10.6478 60.5664 10.1218C60.0627 9.65879 60.4998 9.04759 61.1184 8.52529C62.0778 7.70664 61.4888 4.59876 60.3997 3.86161C60.2962 3.75798 60.1591 3.69471 60.0131 3.68316C59.8671 3.67162 59.7218 3.71257 59.6033 3.79863C58.5587 4.42836 57.8216 7.70294 58.7513 8.48454C59.3033 8.94016 59.5848 9.34393 59.5515 9.96625C59.5292 10.3367 59.1032 10.3107 58.8106 10.2848C58.0142 10.2218 57.2956 9.88476 57.0881 9.11427C56.5214 7.02506 56.5288 4.95807 57.9771 3.18743C58.5809 2.43546 59.3477 1.81684 59.8404 0.92041Z" fill="#251F40"/>
<path d="M94.3848 65.6415L95.4145 63.3338C95.6553 64.445 95.9591 63.4782 96.1072 63.3338C97.4913 61.7971 99.2713 60.6707 101.252 60.0777C101.419 63.8746 99.5152 66.2935 96.6221 68.1493C96.0406 67.4566 96.6555 66.9343 96.8333 66.375C96.5369 66.7232 96.3629 67.2418 95.8702 67.4862C95.4998 67.6826 95.5812 68.3123 95.0404 68.3456C94.2773 67.5492 95.296 66.3565 94.3848 65.6415Z" fill="#E7B74C"/>
<path d="M24.6058 63.7264C24.8078 63.9168 24.9688 64.1464 25.079 64.4012C25.1892 64.656 25.2462 64.9305 25.2467 65.2081C24.7503 66.186 25.6986 67.3233 24.791 68.4123L23.4242 66.3713C23.1159 66.1828 22.8518 65.9301 22.65 65.6304C22.95 65.8749 22.65 66.612 23.1056 67.0565L23.5946 68.0863C20.1941 66.5342 18.3419 63.3745 18.8901 60.0999C20.7363 60.738 22.3993 61.8162 23.7353 63.2411C23.9502 63.4486 23.9687 64.1783 24.6058 63.7264Z" fill="#E8B74A"/>
<path d="M20.2728 68.9976C19.1615 69.7755 17.8465 69.368 16.487 69.8644C18.2799 70.1422 19.8209 69.9977 21.6989 69.9014C20.0728 71.8091 18.2243 72.3055 16.1425 72.0721C15.4129 71.9747 14.6992 71.7817 14.02 71.498C13.0828 71.1275 11.4566 70.8719 11.5381 70.0162C11.6418 68.8864 13.2236 68.5345 14.3274 68.3123C16.3092 67.9011 18.3281 67.9641 20.2728 68.9976Z" fill="#E8B749"/>
<path d="M98.6035 70.0237H103.16C102.078 69.5014 100.863 69.7014 99.8259 69.1532C102.049 67.6382 106.282 67.8123 108.172 69.4792C108.542 69.7978 108.816 69.9719 108.279 70.446C106.453 72.0722 102.004 72.6241 99.8926 71.3943C99.3703 71.0794 98.8184 70.7831 98.6035 70.0237Z" fill="#E8B748"/>
<path d="M105.801 66.2009C107.09 65.849 108.238 65.9786 109.235 65.3341C108.409 64.834 107.597 65.4526 106.782 65.3081C108.731 63.2486 111.798 62.4299 114.135 63.3412C114.543 63.5004 115.195 63.4819 114.876 64.2561C113.754 66.838 108.457 68.0975 105.801 66.2009Z" fill="#E7B74B"/>
<path d="M13.1404 65.1525H10.5474C11.7068 66.0193 12.8774 65.8934 13.9775 66.1045C12.281 68.6642 6.90979 66.9787 4.86133 63.882C7.38764 62.4077 10.1214 62.7485 13.1404 65.1525Z" fill="#E7B74B"/>
<path d="M41.2439 62.6966C40.4215 62.8522 39.7955 61.9298 38.9361 62.2706C38.4694 59.7295 38.8657 57.1624 38.7324 54.6139C38.6731 53.4804 39.4732 53.7804 40.0956 53.71C40.9401 53.6137 41.2809 53.8767 41.2587 54.7991C41.2031 57.4291 41.2439 60.0629 41.2439 62.6966Z" fill="#272041"/>
<path d="M111.011 53.2952C111.437 53.5915 111.6 53.436 111.752 52.9692C112.189 51.5912 113.134 50.554 114.13 49.5465C114.941 48.7241 115.475 48.8056 115.645 49.9762C116.015 52.4247 115.16 54.4435 113.141 56.4883C113.334 55.4103 113.445 54.7732 113.619 53.8064C112.7 54.9177 112.763 55.9956 112.422 56.9402C112.374 56.9735 112.315 57.0439 112.274 57.0328C111.641 56.9106 111.552 56.4438 111.581 55.9215C111.274 56.3772 110.963 56.6624 110.637 55.9215C110.429 54.9955 110.244 54.0953 111.011 53.2952Z" fill="#E6B74F"/>
<path d="M15.2482 63.7264C13.9665 62.1817 13.1071 60.4592 13.1479 58.4108C13.1701 57.4884 13.3924 56.8587 14.5592 57.6514C17.4559 59.6184 18.6339 62.1521 17.8523 65.06C16.9707 65.2785 16.9966 64.5154 16.741 64.045C16.3706 63.3782 16.2854 62.5633 15.915 62.1706C16.1335 62.2966 16.1965 62.8115 16.3521 63.256C16.4854 63.6264 16.8484 64.1302 16.3521 64.4043C15.7446 64.6969 15.5149 64.0968 15.2482 63.7264Z" fill="#E7B74B"/>
<path d="M102.128 65.0525C101.221 61.9558 103.277 58.107 106.329 57.2032C106.399 57.1847 106.518 57.3328 106.614 57.4032C107.544 59.8554 106.81 61.9187 105.132 63.756C104.673 64.1079 104.147 64.8044 103.61 64.308C102.939 63.6894 103.61 63.0226 103.906 62.5114C102.854 62.9522 103.758 64.9007 102.128 65.0525Z" fill="#E8B749"/>
<path d="M8.32199 54.036C8.84799 53.7545 8.5998 52.9248 9.25546 52.7469C12.4819 54.9695 13.5524 57.8366 12.1263 60.6889C11.2817 60.1185 11.8003 58.9331 11.0409 58.3737C10.7298 58.5997 10.9446 58.9294 10.889 59.2072C10.9705 59.3776 11.0076 59.5776 10.8001 59.6369C10.4556 59.7332 10.2556 59.5035 10.1149 59.2183C9.00357 58.107 8.93319 56.5624 8.29976 55.251C8.21458 55.1737 8.14692 55.079 8.10131 54.9734C8.0557 54.8677 8.03319 54.7536 8.03529 54.6385C8.0374 54.5235 8.06406 54.4102 8.11351 54.3063C8.16295 54.2024 8.23403 54.1102 8.32199 54.036Z" fill="#E5BA5B"/>
<path d="M80.5894 62.2817C79.9708 61.9557 79.4485 62.6521 78.6113 62.3817C78.6113 59.4702 78.6113 56.4956 78.6113 53.5248C81.1339 52.984 81.1339 52.984 81.1339 55.5177C81.1339 57.2266 81.1339 58.9368 81.1339 60.6481C81.1339 61.2556 81.2191 61.8742 80.5894 62.2817Z" fill="#282141"/>
<path d="M80.2176 115.612C79.5101 115.612 78.8063 115.638 78.0988 115.612C77.3912 115.586 76.9541 115.638 76.9615 116.56C76.9615 117.553 77.5653 117.405 78.1691 117.435C78.7729 117.464 79.3545 117.268 80.0213 117.772C79.2804 118.316 78.6025 118.142 77.9913 118.124C77.1505 118.087 76.9615 118.442 76.9615 119.213C76.9615 119.983 77.2838 120.139 77.9617 120.135C78.7026 120.135 79.5101 119.965 80.2287 120.306V120.872C78.6507 120.872 76.7245 121.432 75.5762 120.728C74.1352 119.85 75.2057 117.727 74.9946 116.157C74.9316 115.679 74.739 114.886 75.591 114.879C77.1357 114.879 78.71 114.612 80.2287 115.038L80.2176 115.612Z" fill="#1F1B3B"/>
<path d="M8.32215 54.036L8.29993 55.251C8.12953 55.6844 7.95543 56.1178 7.73317 56.6697C6.94416 55.9882 7.34052 54.8435 6.62189 54.236C6.05884 54.8546 6.99231 55.4733 6.55891 56.2363C5.67842 55.4372 5.0133 54.4292 4.62487 53.3054C4.23645 52.1815 4.13722 50.978 4.33635 49.8057C4.43266 49.1278 4.70677 48.5463 5.5143 49.2908C6.89229 50.6021 8.21843 51.9542 8.32215 54.036Z" fill="#E7B74D"/>
<path d="M111.657 60.7296C111.328 60.8333 111.042 61.2852 110.639 60.8667C110.686 60.4369 110.837 60.0252 111.08 59.6675C111.323 59.3097 111.649 59.0169 112.031 58.8145C113.413 57.555 114.891 56.5178 116.929 56.7105C116.228 60.5333 113.721 62.7855 110.716 62.3261C110.816 61.5853 111.631 61.5853 111.965 61.1111C112.234 60.6858 112.582 60.316 112.991 60.0221C112.593 60.3376 112.141 60.5774 111.657 60.7296Z" fill="#E8B749"/>
<path d="M9.06728 61.852C9.59699 62.5707 9.01542 62.5373 8.58202 62.5299C6.84842 62.5003 5.5445 61.6446 4.54435 60.3074C3.69875 59.2523 3.13989 57.9968 2.92188 56.6624C5.92604 56.6624 7.73743 58.2996 9.07097 60.6778C8.50422 61.1334 8.50423 61.1334 7.4448 60.4333C7.98933 60.963 8.69315 61.2223 9.06728 61.852Z" fill="#E8B749"/>
<path d="M111.011 53.2952C111.011 54.3212 111.011 55.3436 111.011 56.3697C111.589 57.6292 110.715 58.4478 110.115 59.3331C109.655 59.6295 109.178 60.0444 108.889 59.1405C108.889 59.1072 108.818 59.3146 108.755 59.4035C108.577 60.0332 108.474 60.8519 107.585 60.6593C106.873 60.5037 106.896 59.7554 106.903 59.1442C106.91 58.533 106.81 57.9292 107.192 57.3921C107.718 55.7122 108.708 54.215 110.048 53.0729C110.467 52.721 110.87 52.4098 111.011 53.2952Z" fill="#E7B84E"/>
<path d="M25.1469 115.501C23.2948 115.701 21.3241 115.164 21.0352 117.442C20.6647 120.45 23.3096 119.717 25.0247 120.257C23.2318 121.287 20.2943 120.939 19.3571 119.628C18.9242 119.094 18.7002 118.42 18.7267 117.733C18.7533 117.047 19.0287 116.393 19.5016 115.894C20.5462 114.66 23.3726 114.393 25.1469 115.501Z" fill="#1F1B3B"/>
<path d="M119.998 115.09C118.935 116.816 117.209 118.083 117.624 120.354C117.731 120.95 117.09 120.883 116.679 120.876C116.268 120.869 115.568 120.969 115.686 120.409C116.138 117.894 114.016 116.801 112.838 115.082C115.135 114.093 115.523 116.264 116.601 117.283C117.65 116.453 117.605 114.079 119.998 115.09Z" fill="#1F1B3B"/>
<path d="M111.36 58.7107C110.864 57.9143 110.427 59.2849 109.797 59.2256C108.912 60.0258 109.386 58.4366 108.819 58.67C109.305 60.7851 108.023 61.9483 106.5 62.9892C106.004 63.33 105.537 63.7078 105.059 64.0708C104.248 64.5487 103.067 64.5524 102.804 65.7304C102.658 65.7411 102.52 65.7968 102.407 65.8896C97.405 69.0539 91.7111 70.9603 85.8121 71.4461C79.7593 71.9832 73.8472 72.8537 68.4946 75.9801C68.1834 76.1616 67.8315 76.4098 67.6389 75.8319C67.5759 75.5726 67.6722 75.2429 67.3314 75.0911C66.5906 75.6763 67.3314 76.8247 66.2868 77.4136C64.3643 78.5249 62.8307 80.1363 61.3935 81.7995C60.6822 82.6182 60.2489 82.8478 59.4561 81.8995C58.1152 80.303 56.4297 79.062 54.811 77.7581C53.8422 76.6095 52.5107 75.8255 51.0363 75.5356C46.9616 73.6056 42.7276 72.2017 38.2306 71.8869C31.6222 71.4349 25.2657 70.1496 19.3648 67.0343L17.5682 65.8415C16.9977 64.7821 15.9087 64.4931 14.9122 64.0634C13.2786 62.6854 11.0709 61.7816 10.8894 59.1997C10.6375 59.6665 10.3745 59.2738 10.1152 59.1997C9.81514 59.9702 9.37433 58.5737 9.00391 59.3442C11.8006 62.5039 14.7307 65.5229 18.635 67.401C19.1788 67.7775 19.7468 68.1178 20.3353 68.4197C22.7097 69.4495 25.1027 70.4348 27.4882 71.4349C31.1925 71.9943 34.8783 72.5166 38.6011 72.9166C46.3319 73.7797 53.1292 76.7987 58.6634 82.4255C59.5191 83.296 59.8377 83.9072 58.9931 85.0407C58.2343 86.1582 57.6218 87.3682 57.1706 88.6413C56.9928 89.0858 56.2297 89.8489 57.1484 90.1786C57.9115 90.4527 57.83 89.4859 58.0263 89.0673C58.7079 87.5671 59.3302 86.0409 60.5341 84.674C61.7114 86.1225 62.6528 87.7476 63.3234 89.4896C63.4642 89.86 63.5271 90.4601 64.1235 90.2304C64.7199 90.0008 64.3754 89.4896 64.2421 89.1191C63.7719 87.6524 63.0291 86.2876 62.0528 85.0963C61.1119 83.985 61.312 83.2886 62.2269 82.3181C67.587 76.5505 74.2881 73.5316 82.03 72.8907C89.6015 72.2647 96.8212 70.6978 103.196 66.3082C105.941 64.8006 108.078 62.5669 110.234 60.3554C110.905 59.9998 111.831 59.4627 111.36 58.7107Z" fill="#E7B84E"/>
<path d="M85.4903 51.1726C77.4483 47.4683 69.3915 43.8307 61.368 40.1079C60.8888 39.8577 60.3556 39.7289 59.815 39.7328C59.2744 39.7367 58.7431 39.8731 58.2675 40.1302C50.2552 43.8789 42.2132 47.5609 34.1897 51.28C33.7897 51.4653 33.2303 51.5134 33.0488 52.1357H86.9571C86.5497 51.4801 85.9681 51.3912 85.4903 51.1726ZM75.2072 49.5983H44.1728C45.8138 48.7759 47.1028 48.0944 48.4216 47.4795C51.8147 45.894 55.2337 44.3493 58.6231 42.7565C59.3862 42.3861 60.0271 42.2638 60.8457 42.6565C65.6242 44.905 70.4361 47.1016 75.2331 49.2871C75.2331 49.3909 75.2072 49.4946 75.2072 49.5983Z" fill="#211C3D"/>
<path d="M20.3321 96.2351C15.8462 96.287 12.3679 99.643 12.3419 103.955C12.316 108.33 15.8388 111.682 20.4654 111.686C25.0921 111.689 28.5407 108.352 28.5185 103.907C28.4963 99.506 24.9513 96.1795 20.3321 96.2351ZM20.5691 107.929C20.0337 107.95 19.4996 107.863 18.9984 107.673C18.4972 107.484 18.039 107.196 17.6509 106.826C17.2628 106.457 16.9527 106.013 16.7388 105.522C16.5249 105.031 16.4116 104.502 16.4055 103.966C16.4293 102.913 16.8595 101.911 17.606 101.169C18.3524 100.426 19.3573 100.002 20.4099 99.9838C21.4597 100.001 22.4643 100.414 23.223 101.14C23.9818 101.866 24.4389 102.851 24.5031 103.899C24.566 106.003 22.7621 107.852 20.5691 107.929Z" fill="#1F1B3B"/>
<path d="M65.1575 96.5314C60.6383 96.5573 57.1415 99.8653 57.1192 104.166C57.097 108.593 60.5605 111.945 65.1649 111.945C69.7693 111.945 73.2254 108.748 73.2884 104.433C73.3551 99.9357 69.8323 96.5092 65.1575 96.5314ZM65.1575 108.152C64.1081 108.143 63.1032 107.727 62.3543 106.991C61.6054 106.256 61.1708 105.259 61.1421 104.21C61.1711 103.16 61.6018 102.161 62.3453 101.419C63.0889 100.677 64.0888 100.248 65.139 100.221C65.6752 100.217 66.2068 100.32 66.703 100.523C67.1991 100.726 67.6499 101.026 68.029 101.406C68.4082 101.785 68.7082 102.235 68.9116 102.732C69.1149 103.228 69.2176 103.759 69.2137 104.296C69.177 105.339 68.7337 106.326 67.9785 107.047C67.2233 107.767 66.2161 108.164 65.1723 108.152H65.1575Z" fill="#1F1B3B"/>
<path d="M38.6582 105.688C41.2698 104.099 42.0995 102.355 41.4179 99.969C40.8178 97.8798 39.1398 96.876 36.1838 96.8537C34.8947 96.8537 33.5908 96.9315 32.3165 96.8352C31.146 96.7463 30.7459 97.0723 30.7792 98.3169C30.8682 101.873 30.8089 105.437 30.8089 108.996C30.8089 111.612 30.8089 111.563 33.513 111.497C34.4724 111.475 34.7873 111.189 34.7725 110.226C34.7725 109.074 34.565 107.881 34.9762 106.585C38.7472 111.901 38.7471 111.901 42.9108 111.263L38.6582 105.688ZM35.6133 103.329C33.9983 103.362 35.0095 102.066 34.6761 101.543C34.7502 100.725 34.3354 99.7134 35.7356 99.8616C36.8469 99.9764 37.6322 100.439 37.6062 101.666C37.5803 102.892 36.6839 103.307 35.6133 103.329Z" fill="#1F1B3B"/>
<path d="M53.0173 103.755C54.4397 102.169 54.7064 100.469 53.8248 98.717C52.9839 97.0463 51.3355 96.9241 49.6908 96.9389C48.461 96.9389 47.2312 96.9982 46.0088 96.9204C44.9605 96.8537 44.4937 97.0686 44.5271 98.291C44.6085 102.277 44.5974 106.266 44.5271 110.252C44.5085 111.363 44.9271 111.593 45.9162 111.541C47.6905 111.449 49.4723 111.474 51.2503 111.419C53.7507 111.341 55.1731 110.308 55.6065 108.285C56.0659 106.114 55.4732 105.051 53.0173 103.755ZM49.05 99.869C49.9835 99.9246 50.7132 100.191 50.7614 101.214C50.8095 102.236 50.0909 102.573 49.2352 102.695C48.298 102.821 48.2313 102.166 48.3276 101.525C48.424 100.884 47.8313 99.9246 49.05 99.869ZM49.6723 108.548C48.4425 108.737 48.2165 108.092 48.298 107.066C48.361 106.281 48.1128 105.34 49.4612 105.54C50.4687 105.659 51.7133 105.592 51.7615 107.022C51.806 108.381 50.6465 108.396 49.6723 108.548Z" fill="#1F1B3B"/>
<path d="M63.5096 18.2379C63.2763 16.9081 63.1133 15.5597 62.991 14.2151C62.7799 11.9369 62.2502 11.4295 60.0276 11.4072C57.805 11.385 57.1827 11.9555 56.9679 14.1188C56.8234 15.6005 56.5975 17.0451 56.3789 18.5046C56.3109 18.8387 56.3238 19.1841 56.4165 19.5121C56.5091 19.8402 56.6789 20.1413 56.9117 20.3904C57.1444 20.6394 57.4334 20.8292 57.7544 20.9438C58.0754 21.0585 58.4192 21.0947 58.757 21.0495C59.4838 20.9227 60.2254 20.9052 60.9574 20.9976C62.7984 21.2717 63.8393 20.1049 63.5096 18.2379ZM61.8353 16.9155C61.8353 19.4418 61.2908 19.8382 58.7644 19.3937C57.994 19.2566 58.1199 18.8195 58.1162 18.3565C58.1162 16.9488 58.1421 15.5412 58.1162 14.1373C58.0977 13.415 58.2236 13.0779 59.0867 13.026C61.8538 12.8704 61.8501 12.8186 61.8501 16.3599L61.8353 16.9155Z" fill="#211C3D"/>
<path d="M62.2158 116.123C61.3787 115.012 60.1192 114.982 58.882 114.886C55.6074 114.623 55.6074 114.623 55.6074 117.876C55.6074 120.965 55.6074 120.972 58.7301 120.791C59.4022 120.777 60.0711 120.695 60.7267 120.546C62.6122 120.061 63.3975 117.668 62.2158 116.123ZM58.5671 120.031C56.7446 119.92 58.1634 118.376 57.5448 117.657C58.0374 117.009 56.878 115.586 58.656 115.671C60.1378 115.742 60.6045 116.664 60.6119 118.009C60.6193 119.354 59.8266 120.091 58.5671 120.031Z" fill="#1F1B3B"/>
<path d="M41.4121 115.605C40.7935 114.512 39.66 114.516 39.0413 115.605C38.119 117.246 37.2744 118.939 36.2891 120.791C37.304 120.839 37.9375 120.95 38.6265 120.172C38.8223 119.962 39.0583 119.794 39.3206 119.678C39.5828 119.561 39.8658 119.499 40.1527 119.494C40.4397 119.489 40.7246 119.542 40.9906 119.65C41.2566 119.757 41.4982 119.917 41.701 120.12C42.5048 121.009 43.1383 120.861 44.1532 120.757C43.179 118.92 42.3344 117.25 41.4121 115.605ZM39.2747 118.991C39.2303 118.027 39.7155 117.32 40.1897 116.353C40.6749 117.279 41.0861 118.016 41.112 118.902C40.5008 119.161 39.9044 119.02 39.2747 118.991Z" fill="#1F1B3B"/>
<path d="M4.984 115.545C4.3802 114.475 3.41339 114.434 2.80219 115.408C1.74276 117.09 0.905594 118.909 -0.00195312 120.624C1.76869 121.735 2.26506 119.576 3.74677 119.594C5.22848 119.613 5.86932 121.695 7.65849 120.635C6.74723 118.89 5.91377 117.19 4.984 115.545ZM2.93553 118.824C2.79107 118.146 3.35041 117.32 3.79122 116.005C4.28389 117.29 4.56912 118.038 4.92844 118.968C4.08386 119.009 3.04296 119.339 2.93553 118.824Z" fill="#1F1B3B"/>
</g>
<defs>
<clipPath id="clip0_308_580">
<rect width="120" height="120.159" fill="white" transform="translate(0 0.920349)"/>
</clipPath>
</defs>
</svg>
