<svg width="200" height="201" viewBox="0 0 200 201" fill="none" xmlns="http://www.w3.org/2000/svg">
<path d="M143.997 173.637C143.997 169.853 144.065 166.074 143.997 162.29C143.96 160.66 144.294 159.968 146.158 159.981C150.48 159.981 150.48 159.888 150.48 164.302C150.48 170.143 150.375 175.989 150.535 181.823C150.597 184.046 149.869 184.478 147.788 184.528C145.109 184.596 143.25 183.91 141.614 181.614C138.997 177.841 135.965 174.353 132.551 170.038C132.551 174.359 132.317 177.977 132.625 181.552C132.885 184.565 131.347 184.534 129.187 184.491C127.192 184.447 125.76 184.608 125.871 181.706C126.131 175.261 126.038 168.797 125.908 162.345C125.871 160.394 126.526 160.11 128.322 159.937C131.44 159.641 133.416 160.783 135.163 163.284C137.719 166.939 140.602 170.365 143.343 173.89L143.997 173.637Z" fill="white"/>
<path d="M161.773 170.019C161.773 174.81 161.674 178.594 161.773 182.367C161.89 185.583 159.569 184.219 158.142 184.416C156.716 184.614 155.167 184.836 155.235 182.274C155.42 175.514 155.358 168.747 155.235 161.981C155.204 160.265 155.852 160.129 157.346 159.974C160.353 159.69 162.47 160.468 164.267 163.142C166.817 166.92 169.885 170.346 173.25 174.582C173.25 169.883 173.392 165.938 173.2 162.018C173.077 159.585 174.608 159.832 175.923 160.092C177.238 160.351 179.701 158.616 179.683 161.907C179.646 168.772 179.646 175.639 179.683 182.509C179.683 183.922 179.275 184.361 177.781 184.509C174.694 184.756 172.429 184.04 170.558 181.255C168.132 177.526 165.113 174.211 161.773 170.019Z" fill="white"/>
<path d="M135.568 78.1289C132.481 77.5116 130.857 76.0793 131.438 73.0232C131.691 71.6588 130.87 71.0106 129.839 70.3932C110.039 58.6322 90.2093 59.1693 70.3298 70.1956C69.0148 70.9242 68.2307 71.7823 68.5394 73.3319C69.1567 76.4744 67.6442 78.061 64.3289 78.6661C64.3289 75.8446 64.3782 73.0479 64.3289 70.2512C64.298 68.9486 65.2487 68.4793 66.0698 67.9546C85.7457 55.4095 111.311 53.0387 134.123 68.1213C134.615 68.3754 135.019 68.77 135.285 69.2549C135.551 69.7398 135.667 70.293 135.617 70.8439C135.488 73.1899 135.568 75.5298 135.568 78.1289Z" fill="white"/>
<path d="M184.615 171.97C184.615 168.686 184.677 165.401 184.615 162.092C184.566 160.543 184.961 159.913 186.646 159.975C190.024 160.098 193.438 160.147 196.79 159.975C199.13 159.845 198.642 161.358 198.543 162.561C198.445 163.765 199.488 165.704 196.852 165.525C195.617 165.438 194.382 165.605 193.147 165.488C191.586 165.346 191.067 165.84 191.042 167.494C191.042 169.346 191.845 169.513 193.259 169.383C193.972 169.294 194.694 169.294 195.407 169.383C196.327 169.525 197.747 168.723 198.049 170.106C198.352 171.489 198.846 173.532 197.815 174.526C196.679 175.619 194.685 174.884 193.073 174.884C191.709 174.884 191.073 175.137 191.055 176.736C191.055 178.447 191.481 179.206 193.271 178.977C193.988 178.928 194.708 178.928 195.426 178.977C198.383 178.977 199.506 180.7 198.568 183.583C198.247 184.559 197.58 184.454 196.889 184.454C193.401 184.454 189.912 184.392 186.43 184.484C184.807 184.534 184.578 183.744 184.615 182.422C184.665 178.928 184.615 175.44 184.615 171.97Z" fill="white"/>
<path d="M10.3087 158.808C10.8396 158.907 12.2657 159.086 13.6425 159.425C17.0875 160.284 17.1492 160.611 15.4637 163.815C14.7723 165.136 14.1364 165.76 12.667 164.846C12.0354 164.514 11.3417 164.316 10.6297 164.266C9.4505 164.117 8.24661 164.34 7.78976 165.556C7.25881 166.982 8.48122 167.544 9.48754 168.025C10.6799 168.612 11.9042 169.132 13.1548 169.581C16.2046 170.668 17.9333 172.847 17.9024 176.021C17.8715 179.194 16.6676 182.009 13.4079 183.429C9.2159 185.232 5.20912 184.54 1.27025 182.664C-1.2363 181.472 0.726963 180.101 1.27025 178.959C1.72094 177.971 1.93085 176.014 3.95585 177.453C5.12551 178.299 6.50967 178.8 7.95028 178.898C9.18503 178.978 10.4939 178.632 10.8828 177.212C11.2718 175.792 10.2654 175.156 9.20355 174.65C8.28366 174.205 7.31438 173.872 6.36362 173.502C1.85059 171.754 0.263935 169.297 1.00479 165.198C1.74564 161.099 4.75227 158.771 10.3087 158.808Z" fill="white"/>
<path d="M132.855 97.959C132.991 95.4378 132.991 92.9111 132.855 90.3899C132.793 89.4083 133.195 88.0686 131.657 87.6735C131.614 92.0692 131.577 96.4587 131.503 100.848C131.503 101.725 131.861 102.836 130.805 103.318C128.169 104.553 125.928 106.405 123.156 108.467V87.6611C121.304 88.5502 121.995 90.2665 121.921 91.6617C121.489 98.3047 122.81 105.04 120.866 111.603C121.063 114.227 119.563 116.857 120.866 119.771C122.977 116.764 124.619 113.714 127.768 111.819C126.397 114.103 125.021 116.382 123.545 118.832C126.95 117.622 129.887 115.368 131.938 112.392C133.988 109.416 135.048 105.869 134.967 102.256C133.244 101.318 132.756 99.8482 132.855 97.959Z" fill="#EAB744"/>
<path d="M94.0859 34.8384C85.6005 39.2514 78.9436 46.5161 75.2868 55.3538C74.0521 58.274 72.237 59.515 69.1562 60.015C70.7738 52.9399 74.2496 47.0501 78.7873 41.7098C81.5841 38.4315 84.9179 35.7398 88.3196 33.0974C90.3817 31.4922 91.8202 31.4552 93.1228 33.8197C93.3389 34.2148 93.3389 34.8631 94.0242 34.894L94.0859 34.8384Z" fill="white"/>
<path d="M131.042 59.8423C127.955 59.1508 126.103 58.2556 124.868 55.286C121.565 47.2231 115.903 40.969 108.52 36.2708C107.902 35.8819 106.106 35.5917 107.285 34.2149C108.081 33.295 108.618 31.0478 110.446 32.2393C120.552 38.8206 127.664 47.6861 131.042 59.8423Z" fill="white"/>
<path d="M68.7467 102.96C71.9694 105.09 75.5378 106.806 77.6245 110.307C78.2728 110.239 78.8593 110.307 79.026 111.072C79.026 111.171 78.8346 111.226 78.5815 111.183C78.921 113.838 80.3472 116.4 79.1988 119.555C76.7664 116.882 75.3773 113.653 72.2287 111.899C73.5005 114.042 74.7784 116.178 76.1428 118.468C69.8641 117.024 65.2523 110.232 64.9004 102.25C66.4809 100.867 67.5304 102.373 68.7467 102.96Z" fill="#EAB744"/>
<path d="M112.733 124.877L112.22 123.642C112.307 121.833 113.616 120.29 113.455 118.005C111.06 120.864 110.3 124.142 108.782 127.402C106.448 122.957 107.325 119.067 109.368 115.233C109.263 114.69 109.368 114.276 109.985 114.196C112.381 110.776 116.036 108.64 118.826 105.652C120.641 107.683 119.882 109.942 119.4 112.171C118.69 117.203 116.826 121.629 112.733 124.877Z" fill="#EAB744"/>
<path d="M90.774 115.048C92.2866 119.049 93.5892 123.074 91.3543 127.241C89.6874 127.303 89.638 125.864 89.2491 124.852C88.4113 122.454 87.3789 120.129 86.1622 117.9C85.9029 117.573 85.5757 118.215 85.8535 117.9C85.9399 117.814 86.0264 117.857 86.1437 118.018C87.3105 119.617 87.8538 121.493 88.4403 123.339C88.6564 124.006 88.9774 124.877 88.3045 125.346C87.3475 126.019 86.9339 124.883 86.3289 124.457C86.0931 124.255 85.8855 124.022 85.7115 123.765C82.8654 120.364 80.8034 116.628 80.7293 112.035C79.6736 108.887 79.9205 107.886 82.0011 106.8C85.4522 109.004 87.9958 112.183 90.811 115.073L90.774 115.048Z" fill="#EAB744"/>
<path d="M70.3194 132.884C67.498 132.841 65.2508 134.823 62.4417 135.033C60.5093 135.175 58.5769 135.249 56.6383 135.304C54.9097 135.354 54.4467 134.841 55.311 133.156C58.0151 127.889 64.8865 124.105 71.6344 124.661L63.8246 129.816C68.1463 128.914 71.0665 126.871 74.4188 124.932C74.3262 127.112 73.289 128.532 72.3383 130.013C71.9864 130.563 70.7084 130.847 71.5974 131.909C71.6344 132.804 71.3134 133.304 70.3194 132.884Z" fill="#E9B746"/>
<path d="M127.769 130.322C126.756 128.803 125.632 127.346 125.41 124.963C128.763 126.816 131.738 128.884 136.078 129.865L128.522 124.828C134.554 123.827 142.456 128.112 144.654 133.286C145.327 134.866 144.753 135.243 143.252 135.311C139.461 135.539 135.666 134.925 132.14 133.514C130.207 133.107 128.435 132.495 127.769 130.322Z" fill="#E9B745"/>
<path d="M90.7753 115.097C90.7753 106.695 90.7753 98.2924 90.7753 89.8899C90.7753 88.3773 90.621 87.229 92.8868 87.2105C95.1525 87.1919 95.0723 88.1921 95.0599 89.7849C95.0044 96.9588 95.0599 104.133 95.0599 111.307C95.0599 115.628 95.0599 115.628 90.7383 115.048L90.7753 115.097Z" fill="white"/>
<path d="M110.017 114.209L109.399 115.246C105.59 115.456 105.59 115.456 105.596 111.35C105.596 104.17 105.596 96.996 105.596 89.8159C105.596 88.2108 105.596 87.223 107.782 87.2168C110.122 87.2168 109.825 88.4948 109.838 89.9333C109.887 98.0209 109.947 106.113 110.017 114.209Z" fill="white"/>
<path d="M122.05 132.304L117.154 128.859C120.579 128.768 123.973 129.527 127.032 131.069C128.712 131.841 130.502 132.458 131.403 134.286C132.539 135.817 134.768 137.453 133.996 139.107C133.379 140.49 130.675 139.725 128.909 139.626C123.933 139.434 119.414 138.058 116.321 133.829C115.463 132.656 114.469 131.359 114.95 129.637L120.852 132.915C122.118 133.458 123.569 133.464 124.205 133.903C123.785 133.693 122.581 133.471 122.05 132.304Z" fill="#EAB744"/>
<path d="M70.3201 132.884C70.5979 132.842 70.8606 132.73 71.0839 132.56C71.3073 132.389 71.4841 132.165 71.5981 131.908C74.7899 129.834 78.2905 128.859 82.8344 128.822L77.8953 132.31C77.3706 133.032 76.5062 133.365 76.1296 133.779C76.71 132.841 78.1608 133.606 79.1116 132.927L85.2421 129.507C84.5877 133.594 82.254 136.107 78.9202 137.786C75.1357 139.687 71.0425 139.836 66.906 139.681C65.4614 139.632 65.3749 138.99 65.9676 137.94C67.0789 135.952 68.289 134.057 70.3201 132.884Z" fill="#EAB744"/>
<path d="M52.1697 105.911C51.4783 104.454 50.188 102.608 51.2745 101.435C52.2129 100.429 54.1145 101.75 55.5221 102.213C62.9615 104.651 66.6349 109.053 66.4991 115.474C63.8505 113.449 62.1465 110.566 58.9917 109.331L64.0172 115.505C59.7943 114.116 56.726 112.418 54.4108 109.485C53.8183 109.069 53.3148 108.538 52.93 107.924C52.5452 107.31 52.2867 106.626 52.1697 105.911Z" fill="#E9B745"/>
<path d="M46.3889 123.117C50.2845 121.765 54.1185 120.03 59.4217 121.185L51.6243 124.889C55.6187 124.661 58.4154 123.265 61.2862 122.006C60.8664 125.278 58.0326 128.05 53.9394 128.995C50.6118 129.76 47.2347 129.501 43.8823 128.995C42.0981 128.729 41.9253 127.889 43.1353 126.618C44.2466 125.445 45.3332 124.241 46.4321 123.049L46.3889 123.117Z" fill="#E9B745"/>
<path d="M157.742 128.266C149.29 131.476 140.992 128.883 138.227 122.092C141.412 123.086 144.24 124.704 147.555 124.562L140.783 121.345C146.24 119.345 154.445 122.808 157.742 128.266Z" fill="#E9B746"/>
<path d="M161.388 196.715C162.388 194.616 163.24 193.01 163.932 191.313C164.401 190.146 165.167 189.837 166.302 189.868C167.636 189.905 167.636 190.868 167.846 191.751C168.346 193.844 168.902 195.918 169.358 198.017C169.513 198.709 170.124 199.765 168.741 199.87C167.692 199.962 166.395 200.314 166.216 198.542C166.08 197.165 165.815 195.807 165.469 193.541C164.438 195.715 163.808 197.165 163.074 198.561C162.086 200.413 160.783 200.468 159.746 198.69C158.949 197.32 158.307 195.85 157.511 194.251C156.529 195.702 156.69 197.085 156.542 198.375C156.387 199.758 155.628 199.981 154.443 199.925C152.844 199.851 153.307 198.839 153.473 197.968C153.875 195.857 154.338 193.758 154.708 191.64C154.881 190.677 155.035 189.856 156.313 189.831C157.449 189.8 158.24 190.059 158.733 191.214C159.45 192.961 160.326 194.554 161.388 196.715Z" fill="white"/>
<path d="M81.9879 106.825C80.0925 108.214 81.173 110.325 80.7161 112.06L78.5862 111.183L77.623 110.307C77.691 103.565 77.7342 96.8231 77.8391 90.0875C77.8391 88.8528 77.0983 87.2352 79.6604 87.2229C81.9262 87.2229 82.062 88.1984 82.0373 89.9579C81.957 95.5822 81.9941 101.2 81.9879 106.825Z" fill="white"/>
<path d="M52.1705 105.911C53.2814 106.839 54.0667 108.098 54.4116 109.504C53.5967 111.177 55.2204 112.906 54.4116 114.412L50.9049 111.356C50.1136 111.15 49.4033 110.709 48.8676 110.091C49.4709 110.637 49.8895 111.358 50.0653 112.153L52.2138 114.894C47.3982 113.326 44.1879 110.949 42.1011 107.109C41.7461 106.806 41.4652 106.426 41.28 105.998C41.0949 105.57 41.0104 105.105 41.033 104.639C40.7182 103.713 39.7983 102.688 40.5145 101.843C41.3541 100.879 42.5827 101.583 43.6013 101.904C46.1034 102.698 48.4506 103.916 50.5407 105.504C50.9913 105.868 51.3556 106.973 52.1705 105.911Z" fill="#E9B745"/>
<path d="M156.387 101.892C153.776 102.843 151.238 103.898 149.133 105.769C148.324 106.491 147.929 106.386 147.898 105.288C148.184 104.865 148.393 104.394 148.516 103.898C148.559 103.022 149.54 102.046 148.75 101.342C147.96 100.639 147.003 101.466 146.157 101.682C143.254 102.346 140.521 103.608 138.131 105.386C134.946 107.856 133.106 111.041 133.452 115.659C136.119 113.375 137.773 110.523 141.434 108.807L136.495 114.789C139.959 114.128 142.91 112.752 145.046 109.986C146.281 111.079 145.256 112.375 145.33 113.567C145.447 115.369 146.083 114.69 146.799 113.974C148.448 113.153 149.534 111.721 150.72 110.393C150.164 111.258 149.293 111.863 148.738 112.715C148.182 113.567 148.275 113.499 149.306 114.567C152.522 113.005 155.566 111.233 157.332 107.911C158.925 107.084 158.69 105.442 159.048 104.065C159.573 101.546 158.542 101.108 156.387 101.892Z" fill="#E9B745"/>
<path d="M46.4355 123.074C41.9815 125.168 36.885 125.436 32.2359 123.821C29.8898 123.055 30.3282 122.265 31.7358 121.074C34.6055 118.554 38.3585 117.277 42.1695 117.524C43.4042 117.592 44.639 117.524 45.8367 117.555C46.5652 118.857 45.386 118.789 44.7316 119.03C43.6141 119.456 42.472 119.814 40.7433 120.407C43.8302 121.142 46.096 119.573 48.4976 119.444C48.584 121.228 46.701 121.71 46.4232 123.148L46.4355 123.074Z" fill="#E9B749"/>
<path d="M159.198 120.463L153.882 118.536C157.747 116.16 166.847 118.259 169.057 121.92C169.452 122.537 169.49 122.938 168.835 123.414C164.254 126.76 154.469 124.889 151.444 120.061C151.394 119.987 151.444 119.864 151.4 119.555C153.876 119.456 156.136 121.173 159.198 120.463Z" fill="#E8B749"/>
<path d="M94.027 34.9126C96.62 36.6536 97.3176 38.2341 94.8419 41.0494C91.8943 44.3617 90.0421 48.5039 89.5386 52.9092C89.267 55.3787 87.5075 55.3787 86.0443 55.2923C83.9452 55.1194 85.2108 53.3105 85.3343 52.4276C86.2665 45.6056 89.8165 40.0307 94.1011 34.8447L94.027 34.9126Z" fill="white"/>
<path d="M120.049 112.184C119.37 110.054 119.765 107.825 119.475 105.658C119.475 100.781 119.491 95.8972 119.524 91.0076C119.524 86.8217 119.524 86.8217 123.747 87.6737C123.697 94.2241 123.605 100.774 123.63 107.325C123.63 109.226 123.247 110.745 121.432 111.646L120.049 112.184Z" fill="white"/>
<path d="M115.087 53.8781C115.13 54.4955 115.253 55.4031 114.377 55.1746C113.21 54.8659 111.29 55.6192 110.975 53.9399C109.948 48.4933 107.585 43.387 104.097 39.0796C102.912 37.5547 105.048 37.2275 105.554 36.2705C105.956 35.5173 106.555 35.4433 107.209 36.2397C111.45 41.4009 114.42 47.124 115.087 53.8781Z" fill="white"/>
<path d="M99.7366 0C103.28 3.30914 105.91 6.59977 105.244 11.4462C105.083 12.576 105.034 13.7181 104.182 14.5331C103.33 15.348 101.897 16.2123 100.947 15.3356C100.107 14.5639 100.836 13.5453 101.867 12.6748C103.466 11.3103 102.484 6.13056 100.669 4.90198C100.496 4.72927 100.268 4.62381 100.024 4.60457C99.7812 4.58533 99.539 4.65358 99.3415 4.79702C97.6005 5.84656 96.3719 11.3042 97.9215 12.6068C98.8414 13.3662 99.3106 14.0392 99.255 15.0763C99.218 15.6937 98.508 15.6505 98.0203 15.6073C96.6929 15.5023 95.4952 14.9405 95.1495 13.6564C94.2049 10.1744 94.2172 6.72942 96.6312 3.77835C97.6375 2.52508 98.9155 1.49405 99.7366 0Z" fill="white"/>
<path d="M157.307 107.868L159.023 104.022C159.424 105.874 159.93 104.262 160.177 104.022C162.484 101.461 165.451 99.5833 168.753 98.595C169.031 104.923 165.857 108.955 161.036 112.048C160.066 110.893 161.091 110.023 161.387 109.09C160.894 109.671 160.603 110.535 159.782 110.943C159.165 111.27 159.301 112.319 158.399 112.375C157.128 111.047 158.825 109.06 157.307 107.868Z" fill="#E7B74C"/>
<path d="M41.0149 104.676C41.3515 104.993 41.6198 105.376 41.8035 105.801C41.9871 106.225 42.0822 106.683 42.083 107.145C41.2557 108.775 42.8362 110.671 41.3236 112.486L39.0455 109.084C38.5317 108.77 38.0916 108.349 37.7551 107.849C38.2552 108.257 37.7552 109.485 38.5145 110.226L39.3295 111.942C33.662 109.356 30.5751 104.089 31.4888 98.6318C34.5657 99.6953 37.3373 101.492 39.5641 103.867C39.9221 104.213 39.953 105.429 41.0149 104.676Z" fill="#E8B74A"/>
<path d="M33.7892 113.461C31.9371 114.758 29.7454 114.079 27.4796 114.906C30.4678 115.369 33.036 115.128 36.1661 114.968C33.4558 118.147 30.3751 118.974 26.9055 118.586C25.6894 118.423 24.5 118.101 23.3679 117.629C21.8059 117.011 19.0957 116.585 19.2315 115.159C19.4043 113.276 22.0405 112.69 23.8803 112.319C27.1833 111.634 30.548 111.739 33.7892 113.461Z" fill="#E8B749"/>
<path d="M164.34 115.171H171.934C170.131 114.301 168.106 114.634 166.377 113.72C170.081 111.195 177.138 111.485 180.287 114.264C180.904 114.795 181.361 115.085 180.466 115.875C177.422 118.585 170.007 119.505 166.488 117.455C165.618 116.931 164.698 116.437 164.34 115.171Z" fill="#E8B748"/>
<path d="M176.336 108.8C178.484 108.213 180.398 108.43 182.059 107.355C180.682 106.522 179.33 107.553 177.972 107.312C181.219 103.879 186.331 102.515 190.227 104.034C190.906 104.299 191.993 104.268 191.462 105.559C189.591 109.862 180.763 111.961 176.336 108.8Z" fill="#E7B74B"/>
<path d="M21.9058 107.053H17.5842C19.5166 108.498 21.4675 108.288 23.3011 108.64C20.4735 112.906 11.5215 110.097 8.10742 104.935C12.3179 102.478 16.8742 103.046 21.9058 107.053Z" fill="#E7B74B"/>
<path d="M68.7456 102.96C67.3751 103.219 66.3317 101.682 64.8994 102.25C64.1215 98.0147 64.7821 93.7363 64.5598 89.4887C64.461 87.5996 65.7946 88.0996 66.8318 87.9823C68.2394 87.8218 68.8074 88.2601 68.7703 89.7974C68.6777 94.1808 68.7456 98.5703 68.7456 102.96Z" fill="white"/>
<path d="M185.022 87.2907C185.732 87.7846 186.004 87.5253 186.257 86.7474C186.986 84.4507 188.56 82.7221 190.221 81.0428C191.573 79.6722 192.462 79.8081 192.746 81.759C193.363 85.8398 191.937 89.2045 188.572 92.6125C188.893 90.8159 189.078 89.754 189.369 88.1426C187.838 89.9948 187.942 91.7913 187.374 93.3657C187.294 93.4212 187.195 93.5385 187.128 93.52C186.072 93.3163 185.924 92.5384 185.973 91.6679C185.461 92.4272 184.942 92.9026 184.399 91.6679C184.053 90.1244 183.744 88.6242 185.022 87.2907Z" fill="#E6B74F"/>
<path d="M25.4169 104.676C23.2808 102.102 21.8485 99.2309 21.9164 95.8168C21.9534 94.2796 22.3238 93.23 24.2686 94.5512C29.0965 97.8295 31.0597 102.052 29.7571 106.899C28.2877 107.263 28.3309 105.991 27.9049 105.207C27.2876 104.096 27.1456 102.738 26.5282 102.083C26.8924 102.293 26.9974 103.151 27.2567 103.892C27.4789 104.51 28.084 105.349 27.2567 105.806C26.2442 106.294 25.8614 105.294 25.4169 104.676Z" fill="#E7B74B"/>
<path d="M170.218 106.886C168.705 101.725 172.131 95.3103 177.219 93.8039C177.336 93.773 177.534 94.02 177.694 94.1373C179.244 98.2243 178.021 101.663 175.225 104.725C174.459 105.312 173.582 106.472 172.687 105.645C171.57 104.614 172.687 103.503 173.181 102.651C171.428 103.386 172.934 106.633 170.218 106.886Z" fill="#E8B749"/>
<path d="M13.8726 88.5254C14.7493 88.0562 14.3356 86.6733 15.4284 86.377C20.8057 90.0812 22.5899 94.8597 20.213 99.6135C18.8054 98.6628 19.6697 96.6872 18.4041 95.7549C17.8855 96.1315 18.2436 96.681 18.151 97.144C18.2868 97.428 18.3486 97.7614 18.0028 97.8602C17.4287 98.0207 17.0953 97.6379 16.8607 97.1625C15.0086 95.3104 14.8913 92.7359 13.8355 90.5504C13.6936 90.4215 13.5808 90.2637 13.5048 90.0876C13.4288 89.9116 13.3912 89.7213 13.3948 89.5295C13.3983 89.3378 13.4427 89.149 13.5251 88.9758C13.6075 88.8027 13.726 88.6491 13.8726 88.5254Z" fill="#E5BA5B"/>
<path d="M134.318 102.268C133.287 101.725 132.417 102.886 131.021 102.435C131.021 97.5824 131.021 92.6249 131.021 87.6735C135.226 86.7721 135.226 86.7721 135.226 90.995C135.226 93.8432 135.226 96.6934 135.226 99.5457C135.226 100.558 135.368 101.589 134.318 102.268Z" fill="white"/>
<path d="M133.701 191.152C132.521 191.152 131.348 191.195 130.169 191.152C128.99 191.109 128.261 191.195 128.274 192.732C128.274 194.387 129.28 194.14 130.286 194.189C131.293 194.239 132.262 193.911 133.373 194.751C132.139 195.659 131.009 195.368 129.99 195.338C128.589 195.276 128.274 195.869 128.274 197.153C128.274 198.437 128.811 198.696 129.941 198.69C131.175 198.69 132.521 198.406 133.719 198.974V199.919C131.089 199.919 127.879 200.851 125.965 199.678C123.563 198.215 125.347 194.677 124.996 192.059C124.891 191.263 124.57 189.942 125.99 189.929C128.564 189.929 131.188 189.485 133.719 190.195L133.701 191.152Z" fill="white"/>
<path d="M13.8741 88.5256L13.8371 90.5506C13.5531 91.2729 13.2629 91.9952 12.8925 92.9151C11.5775 91.7792 12.2381 89.8715 11.0404 88.859C10.102 89.89 11.6577 90.921 10.9354 92.1928C9.46793 90.8609 8.3594 89.181 7.71202 87.3079C7.06465 85.4348 6.89927 83.4289 7.23115 81.4751C7.39167 80.3453 7.84852 79.3761 9.1944 80.617C11.491 82.8025 13.7013 85.0559 13.8741 88.5256Z" fill="#E7B74D"/>
<path d="M186.096 99.6814C185.547 99.8543 185.071 100.608 184.398 99.9099C184.477 99.1936 184.729 98.5074 185.134 97.9112C185.539 97.315 186.083 96.8269 186.72 96.4896C189.023 94.3905 191.486 92.6619 194.881 92.9829C193.715 99.3542 189.535 103.108 184.528 102.342C184.695 101.108 186.053 101.108 186.609 100.317C187.057 99.6084 187.638 98.9922 188.319 98.5022C187.656 99.0282 186.903 99.4279 186.096 99.6814Z" fill="#E8B749"/>
<path d="M15.1153 101.552C15.9982 102.75 15.0289 102.694 14.3066 102.682C11.4173 102.633 9.24408 101.207 7.57716 98.9778C6.16784 97.2194 5.2364 95.1269 4.87305 92.9028C9.87997 92.9028 12.899 95.6316 15.1215 99.5952C14.1769 100.355 14.1769 100.355 12.4112 99.1877C13.3188 100.071 14.4918 100.503 15.1153 101.552Z" fill="#E8B749"/>
<path d="M185.022 87.291C185.022 89.0011 185.022 90.7051 185.022 92.4153C185.985 94.5143 184.528 95.8787 183.528 97.3543C182.762 97.8482 181.966 98.5396 181.484 97.0332C181.484 96.9777 181.367 97.3234 181.262 97.4716C180.966 98.5211 180.793 99.8855 179.311 99.5645C178.126 99.3052 178.163 98.0581 178.175 97.0394C178.187 96.0207 178.021 95.0144 178.657 94.1192C179.534 91.3194 181.184 88.8241 183.417 86.9206C184.114 86.3341 184.787 85.8155 185.022 87.291Z" fill="#E7B84E"/>
<path d="M41.9167 190.967C38.8298 191.3 35.5454 190.405 35.0638 194.202C34.4464 199.215 38.8545 197.992 41.7129 198.894C38.7248 200.61 33.829 200.03 32.2671 197.844C31.5455 196.954 31.1721 195.832 31.2164 194.687C31.2607 193.542 31.7197 192.453 32.5079 191.621C34.2489 189.565 38.9594 189.121 41.9167 190.967Z" fill="white"/>
<path d="M200 190.282C198.228 193.159 195.351 195.27 196.043 199.055C196.222 200.049 195.154 199.937 194.469 199.925C193.783 199.913 192.616 200.079 192.814 199.147C193.567 194.955 190.03 193.134 188.066 190.269C191.894 188.621 192.542 192.239 194.339 193.937C196.086 192.554 196.012 188.596 200 190.282Z" fill="white"/>
<path d="M185.603 96.3169C184.776 94.9895 184.048 97.2738 182.998 97.175C181.523 98.5086 182.313 95.86 181.368 96.249C182.177 99.7742 180.041 101.713 177.503 103.448C176.676 104.016 175.898 104.645 175.102 105.25C173.75 106.047 171.78 106.053 171.342 108.016C171.1 108.034 170.869 108.127 170.681 108.282C162.344 113.555 152.855 116.733 143.023 117.542C132.935 118.437 123.082 119.888 114.161 125.099C113.642 125.401 113.055 125.815 112.734 124.852C112.629 124.42 112.79 123.87 112.222 123.617C110.987 124.593 112.222 126.507 110.481 127.488C107.277 129.34 104.721 132.026 102.325 134.798C101.14 136.162 100.418 136.545 99.0965 134.965C96.8616 132.304 94.0526 130.236 91.3546 128.062C89.74 126.148 87.5209 124.841 85.0635 124.358C78.2724 121.142 71.2158 118.802 63.7208 118.277C52.7068 117.524 42.1126 115.381 32.2778 110.189L29.2835 108.201C28.3328 106.436 26.5177 105.954 24.8569 105.238C22.1343 102.941 18.4547 101.435 18.1522 97.1318C17.7324 97.9097 17.2941 97.2553 16.8619 97.1318C16.3618 98.416 15.6271 96.0884 15.0098 97.3726C19.671 102.639 24.5544 107.67 31.0616 110.801C31.9679 111.428 32.9145 111.995 33.8953 112.498C37.8527 114.215 41.841 115.857 45.8169 117.524C51.9906 118.456 58.1335 119.327 64.3382 119.993C77.2228 121.432 88.5517 126.463 97.7753 135.841C99.2015 137.292 99.7324 138.311 98.3248 140.2C97.0601 142.062 96.0393 144.079 95.2873 146.201C94.991 146.942 93.7192 148.214 95.2503 148.763C96.5221 149.22 96.3862 147.609 96.7134 146.911C97.8494 144.411 98.8866 141.867 100.893 139.589C102.855 142.003 104.424 144.712 105.542 147.615C105.777 148.232 105.881 149.232 106.875 148.849C107.869 148.467 107.295 147.615 107.073 146.997C106.289 144.553 105.051 142.278 103.424 140.293C101.856 138.441 102.19 137.28 103.714 135.662C112.648 126.05 123.816 121.018 136.719 119.95C149.339 118.907 161.371 116.295 171.996 108.979C176.571 106.467 180.133 102.744 183.727 99.058C184.844 98.4653 186.387 97.5701 185.603 96.3169Z" fill="#E7B84E"/>
<path d="M142.486 83.7532C129.083 77.5794 115.655 71.5168 102.282 65.3121C101.484 64.8951 100.595 64.6805 99.6941 64.6869C98.7932 64.6934 97.9076 64.9208 97.115 65.3492C83.7611 71.597 70.3579 77.7338 56.9855 83.9322C56.3187 84.2409 55.3865 84.3212 55.084 85.3584H144.931C144.252 84.2656 143.282 84.1174 142.486 83.7532ZM125.348 81.1293H73.6238C76.3588 79.7587 78.5073 78.6228 80.7051 77.5979C86.3603 74.9556 92.0587 72.3811 97.7077 69.7264C98.9795 69.109 100.048 68.9053 101.412 69.5597C109.376 73.3072 117.396 76.9682 125.391 80.6107C125.391 80.7836 125.348 80.9565 125.348 81.1293Z" fill="white"/>
<path d="M33.8893 158.857C26.4129 158.944 20.6157 164.537 20.5725 171.723C20.5293 179.014 26.4005 184.602 34.1116 184.608C41.8226 184.614 47.5704 179.051 47.5333 171.643C47.4963 164.309 41.588 158.764 33.8893 158.857ZM34.2844 178.348C33.392 178.382 32.5019 178.236 31.6666 177.921C30.8312 177.605 30.0676 177.125 29.4208 176.509C28.774 175.893 28.2571 175.154 27.9006 174.335C27.5441 173.517 27.3552 172.635 27.3451 171.742C27.3848 169.988 28.1017 168.317 29.3459 167.08C30.59 165.842 32.2647 165.135 34.019 165.105C35.7687 165.134 37.443 165.823 38.7076 167.032C39.9722 168.242 40.734 169.884 40.841 171.631C40.9459 175.137 37.9393 178.218 34.2844 178.348Z" fill="white"/>
<path d="M108.596 159.351C101.064 159.394 95.2364 164.907 95.1994 172.075C95.1624 179.453 100.935 185.04 108.609 185.04C116.283 185.04 122.043 179.712 122.148 172.519C122.259 165.024 116.388 159.314 108.596 159.351ZM108.596 178.718C106.848 178.703 105.173 178.009 103.924 176.784C102.676 175.559 101.952 173.897 101.904 172.149C101.953 170.399 102.67 168.734 103.91 167.497C105.149 166.26 106.815 165.545 108.566 165.5C109.459 165.493 110.345 165.664 111.172 166.003C111.999 166.342 112.75 166.842 113.382 167.474C114.014 168.106 114.514 168.857 114.853 169.684C115.192 170.511 115.363 171.397 115.357 172.291C115.296 174.03 114.557 175.675 113.298 176.876C112.039 178.077 110.361 178.738 108.621 178.718H108.596Z" fill="white"/>
<path d="M64.4297 174.612C68.7822 171.964 70.1651 169.056 69.0292 165.08C68.029 161.598 65.2323 159.925 60.3056 159.888C58.1572 159.888 55.984 160.017 53.8602 159.857C51.9093 159.709 51.2425 160.252 51.2981 162.326C51.4463 168.253 51.3475 174.192 51.3475 180.125C51.3475 184.484 51.3475 184.404 55.8543 184.293C57.4533 184.256 57.9781 183.78 57.9534 182.175C57.9534 180.255 57.6077 178.267 58.293 176.106C64.5779 184.966 64.5779 184.966 71.5172 183.904L64.4297 174.612ZM59.3549 170.679C56.6631 170.735 58.3485 168.574 57.7929 167.704C57.9164 166.339 57.2249 164.654 59.5586 164.901C61.4107 165.092 62.7196 165.864 62.6763 167.907C62.6331 169.951 61.1391 170.642 59.3549 170.679Z" fill="white"/>
<path d="M88.366 171.39C90.7367 168.748 91.1812 165.914 89.7118 162.994C88.3104 160.209 85.5631 160.006 82.8219 160.03C80.7722 160.03 78.7225 160.129 76.6852 160C74.938 159.888 74.1601 160.246 74.2157 162.284C74.3515 168.927 74.333 175.576 74.2157 182.219C74.1848 184.071 74.8824 184.454 76.5308 184.367C79.4881 184.213 82.4576 184.256 85.4211 184.164C89.5883 184.034 91.9591 182.312 92.6814 178.941C93.447 175.323 92.4592 173.551 88.366 171.39ZM81.7539 164.914C83.3096 165.006 84.5259 165.451 84.6061 167.155C84.6864 168.859 83.4887 169.421 82.0625 169.624C80.5006 169.834 80.3894 168.742 80.55 167.674C80.7105 166.605 79.7227 165.006 81.7539 164.914ZM82.791 179.379C80.7413 179.694 80.3647 178.62 80.5006 176.909C80.6055 175.601 80.1919 174.033 82.4391 174.366C84.1184 174.563 86.1928 174.452 86.273 176.835C86.3471 179.101 84.4147 179.126 82.791 179.379Z" fill="white"/>
<path d="M105.849 28.8623C105.46 26.6459 105.188 24.3986 104.984 22.1576C104.632 18.3607 103.75 17.5149 100.045 17.4778C96.3411 17.4408 95.3039 18.3916 94.9458 21.997C94.705 24.4666 94.3284 26.8743 93.9642 29.3068C93.8508 29.8635 93.8723 30.4392 94.0268 30.986C94.1812 31.5327 94.4642 32.0346 94.8521 32.4496C95.24 32.8647 95.7216 33.181 96.2566 33.3721C96.7917 33.5632 97.3646 33.6236 97.9277 33.5482C99.139 33.3369 100.375 33.3078 101.595 33.4617C104.663 33.9186 106.398 31.9739 105.849 28.8623ZM103.058 26.6582C103.058 30.8688 102.151 31.5293 97.9401 30.7885C96.6559 30.5601 96.8658 29.8316 96.8597 29.0598C96.8597 26.7138 96.9029 24.3678 96.8597 22.0279C96.8288 20.824 97.0387 20.2622 98.4772 20.1758C103.089 19.9165 103.083 19.8301 103.083 25.7322L103.058 26.6582Z" fill="white"/>
<path d="M103.696 192.004C102.3 190.152 100.201 190.103 98.1393 189.942C92.6816 189.504 92.6816 189.504 92.6816 194.924C92.6816 200.073 92.6816 200.086 97.8861 199.783C99.0062 199.76 100.121 199.623 101.214 199.376C104.356 198.567 105.665 194.579 103.696 192.004ZM97.6145 198.518C94.577 198.332 96.9415 195.758 95.9105 194.56C96.7316 193.48 94.7993 191.109 97.7627 191.251C100.232 191.368 101.01 192.906 101.022 195.147C101.035 197.388 99.7136 198.616 97.6145 198.518Z" fill="white"/>
<path d="M69.0246 191.14C67.9936 189.319 66.1045 189.325 65.0734 191.14C63.5362 193.875 62.1286 196.696 60.4863 199.783C62.1779 199.864 63.2337 200.049 64.382 198.752C64.7084 198.403 65.1018 198.122 65.5388 197.928C65.9759 197.734 66.4476 197.63 66.9258 197.621C67.404 197.613 67.8789 197.702 68.3222 197.881C68.7656 198.061 69.1682 198.327 69.5062 198.666C70.8459 200.148 71.9016 199.901 73.5932 199.728C71.9695 196.666 70.5619 193.881 69.0246 191.14ZM65.4624 196.783C65.3883 195.178 66.1971 193.998 66.9873 192.387C67.7961 193.931 68.4814 195.159 68.5246 196.635C67.5059 197.067 66.5119 196.832 65.4624 196.783Z" fill="white"/>
<path d="M8.30989 191.041C7.30357 189.257 5.69222 189.189 4.67355 190.813C2.90785 193.616 1.51257 196.647 0 199.505C2.95106 201.357 3.77834 197.758 6.24785 197.789C8.71736 197.82 9.78542 201.29 12.7674 199.524C11.2486 196.616 9.85951 193.782 8.30989 191.041ZM4.8958 196.505C4.65502 195.375 5.58726 193.998 6.32193 191.807C7.14305 193.949 7.61843 195.196 8.21729 196.746C6.80967 196.814 5.07483 197.363 4.8958 196.505Z" fill="white"/>
</svg>
