<svg width="18" height="18" viewBox="0 0 18 18" fill="none" xmlns="http://www.w3.org/2000/svg">
<path d="M12.1619 11.9551L12.5592 11.5603L11.6364 10.6331L11.2407 11.0279L12.1619 11.9551ZM13.8917 11.3948L15.5571 12.3002L16.1802 11.1516L14.5157 10.2471L13.8917 11.3948ZM15.8769 14.0989L14.6394 15.3303L15.5605 16.2566L16.798 15.0261L15.8769 14.0989ZM13.8847 15.7259C12.6211 15.8444 9.35314 15.739 5.81327 12.22L4.89126 13.1464C8.75357 16.9869 12.4303 17.1752 14.0067 17.0279L13.8847 15.7259ZM5.81327 12.22C2.43985 8.86492 1.88037 6.044 1.81065 4.8196L0.505207 4.89368C0.592353 6.43442 1.28516 9.56122 4.89126 13.1464L5.81327 12.22ZM7.01153 6.83442L7.26163 6.58518L6.34137 5.65882L6.09126 5.90719L7.01153 6.83442ZM7.46033 3.41742L6.36229 1.94989L5.31566 2.7342L6.4137 4.20087L7.46033 3.41742ZM2.66643 1.63006L1.29824 2.98954L2.22024 3.91677L3.58756 2.55729L2.66643 1.63006ZM6.55139 6.3708C6.08952 5.90718 6.08952 5.90718 6.08952 5.90893H6.08778L6.08516 5.91241C6.04375 5.95417 6.00667 6.00001 5.97449 6.04923C5.92743 6.11895 5.87601 6.21045 5.83244 6.32636C5.72636 6.62555 5.69993 6.94719 5.75575 7.25969C5.87253 8.0135 6.39192 9.00958 7.72177 10.3325L8.64377 9.40522C7.39845 8.16775 7.10216 7.41481 7.04726 7.05925C7.02111 6.89019 7.04813 6.80653 7.05597 6.78736C7.0612 6.77574 7.0612 6.774 7.05597 6.78213C7.0482 6.79416 7.03946 6.80552 7.02983 6.81612L7.02111 6.82483L7.0124 6.83267L6.55139 6.3708ZM7.72177 10.3325C9.05248 11.6553 10.0538 12.1712 10.8085 12.2863C11.1945 12.3455 11.5056 12.2985 11.7418 12.2105C11.8741 12.1621 11.9977 12.0926 12.1078 12.0048L12.1514 11.9656L12.1575 11.9603L12.1601 11.9577L12.161 11.956C12.161 11.956 12.1619 11.9551 11.7009 11.4915C11.239 11.0279 11.2416 11.027 11.2416 11.027L11.2433 11.0253L11.2451 11.0235L11.2503 11.0192L11.259 11.0105L11.2921 10.9843C11.3003 10.9791 11.2982 10.9797 11.286 10.9861C11.2642 10.9939 11.1788 11.0209 11.0072 10.9948C10.6464 10.939 9.88821 10.6427 8.64377 9.40522L7.72177 10.3325ZM6.36229 1.94901C5.4734 0.763829 3.72699 0.575594 2.66643 1.63006L3.58756 2.55729C4.05118 2.09629 4.87383 2.14422 5.31566 2.7342L6.36229 1.94901ZM1.81152 4.82047C1.7941 4.51895 1.93266 4.20348 2.22024 3.91764L1.29736 2.99041C0.82939 3.45577 0.460762 4.11459 0.505207 4.89368L1.81152 4.82047ZM14.6394 15.3303C14.4006 15.5691 14.1427 15.7033 13.8856 15.7268L14.0067 17.0279C14.6473 16.9678 15.171 16.6453 15.5614 16.2575L14.6394 15.3303ZM7.26163 6.58518C8.12002 5.73202 8.18364 4.38387 7.4612 3.4183L6.41458 4.20174C6.76577 4.67145 6.71349 5.28758 6.3405 5.65969L7.26163 6.58518ZM15.5579 12.3011C16.2699 12.688 16.3806 13.5996 15.8778 14.0998L16.7998 15.0261C17.9675 13.8645 17.6076 11.9272 16.181 11.1525L15.5579 12.3011ZM12.5592 11.5612C12.8939 11.2283 13.4324 11.1464 13.8926 11.3956L14.5165 10.2479C13.5719 9.73376 12.4006 9.87581 11.6372 10.634L12.5592 11.5612Z" fill="#372E9E"/>
</svg>
