<svg width="18" height="18" viewBox="0 0 18 18" fill="none" xmlns="http://www.w3.org/2000/svg">
<path d="M14.9552 3.01185C14.1806 2.22974 13.2582 1.60961 12.2416 1.18759C11.225 0.765573 10.1345 0.55011 9.03381 0.553756C4.42173 0.553756 0.662791 4.31269 0.662791 8.92478C0.662791 10.403 1.05136 11.839 1.7778 13.1061L0.595215 17.4478L5.02991 16.2822C6.25473 16.9495 7.6316 17.3042 9.03381 17.3042C13.6459 17.3042 17.4048 13.5453 17.4048 8.93322C17.4048 6.69476 16.5348 4.59144 14.9552 3.01185ZM9.03381 15.8851C7.78365 15.8851 6.55883 15.5473 5.48605 14.9137L5.23264 14.7617L2.59716 15.4543L3.29827 12.8864L3.12933 12.6246C2.4346 11.5155 2.06578 10.2335 2.065 8.92478C2.065 5.08982 5.19041 1.96441 9.02536 1.96441C10.8837 1.96441 12.6323 2.69086 13.9415 4.0086C14.59 4.65384 15.1038 5.4214 15.4532 6.26677C15.8027 7.11214 15.9808 8.01848 15.9773 8.93322C15.9942 12.7682 12.8688 15.8851 9.03381 15.8851ZM12.8519 10.6818C12.6407 10.5804 11.6102 10.0736 11.4243 9.99755C11.23 9.92997 11.0949 9.89619 10.9513 10.0989C10.8077 10.3101 10.4107 10.7831 10.2924 10.9183C10.1742 11.0619 10.0475 11.0788 9.83628 10.969C9.6251 10.8676 8.94934 10.6395 8.15532 9.92997C7.53024 9.37247 7.11633 8.68826 6.98963 8.47708C6.87137 8.26591 6.97273 8.1561 7.08254 8.04628C7.17546 7.95337 7.29372 7.80132 7.39508 7.68306C7.49645 7.5648 7.53868 7.47188 7.60626 7.33673C7.67384 7.19313 7.64005 7.07487 7.58937 6.97351C7.53868 6.87214 7.11633 5.84161 6.94739 5.41925C6.77845 5.0138 6.60106 5.06448 6.47436 5.05603H6.0689C5.9253 5.05603 5.70568 5.10671 5.51139 5.31789C5.32556 5.52906 4.78495 6.03589 4.78495 7.06643C4.78495 8.09697 5.53674 9.09372 5.6381 9.22887C5.73946 9.37247 7.11633 11.4842 9.2112 12.3881C9.70957 12.6077 10.0981 12.7344 10.4022 12.8273C10.9006 12.9878 11.3567 12.9625 11.72 12.9118C12.1254 12.8527 12.9617 12.405 13.1306 11.915C13.308 11.4251 13.308 11.0112 13.2489 10.9183C13.1898 10.8254 13.063 10.7831 12.8519 10.6818Z" fill="#372E9E"/>
</svg>
