<svg width="120" height="121" viewBox="0 0 120 121" fill="none" xmlns="http://www.w3.org/2000/svg">
<g clip-path="url(#clip0_548_2360)">
<path d="M86.395 104.183C86.395 101.912 86.4357 99.6451 86.395 97.3744C86.3728 96.3965 86.5728 95.9816 87.6915 95.989C90.2845 95.989 90.2845 95.9334 90.2845 98.582C90.2845 102.086 90.2215 105.594 90.3178 109.095C90.3549 110.428 89.9178 110.688 88.6694 110.717C87.0618 110.758 85.9468 110.347 84.9652 108.969C83.3945 106.705 81.5757 104.613 79.5273 102.023C79.5273 104.616 79.3865 106.787 79.5717 108.932C79.7273 110.739 78.8049 110.721 77.5084 110.695C76.312 110.669 75.4526 110.765 75.5193 109.024C75.6748 105.157 75.6193 101.279 75.5415 97.4077C75.5193 96.2372 75.9119 96.0668 76.9899 95.9631C78.8605 95.7853 80.0459 96.4706 81.0942 97.9708C82.6278 100.164 84.3576 102.22 86.0023 104.335L86.395 104.183Z" fill="#1F1B3B"/>
<path d="M97.0608 102.012C97.0608 104.887 97.0016 107.157 97.0608 109.421C97.1312 111.351 95.7384 110.532 94.8827 110.65C94.027 110.769 93.0973 110.902 93.138 109.365C93.2491 105.309 93.2121 101.249 93.138 97.1891C93.1195 96.1593 93.5084 96.0778 94.4049 95.9852C96.2089 95.8148 97.4794 96.2816 98.5574 97.8855C100.087 100.153 101.928 102.208 103.947 104.75C103.947 101.931 104.032 99.5636 103.917 97.2113C103.843 95.7519 104.762 95.9 105.551 96.0556C106.34 96.2112 107.818 95.1703 107.807 97.1447C107.785 101.264 107.785 105.384 107.807 109.506C107.807 110.354 107.562 110.617 106.666 110.706C104.814 110.854 103.454 110.424 102.332 108.754C100.876 106.516 99.0649 104.527 97.0608 102.012Z" fill="#1F1B3B"/>
<path d="M81.3378 46.8774C79.4857 46.507 78.5115 45.6476 78.8597 43.814C79.0115 42.9953 78.5189 42.6064 77.9002 42.236C66.0206 35.1793 54.1225 35.5016 42.1947 42.1174C41.4057 42.5545 40.9353 43.0694 41.1205 43.9992C41.4909 45.8847 40.5834 46.8367 38.5942 47.1997C38.5942 45.5068 38.6238 43.8288 38.5942 42.1508C38.5757 41.3692 39.1461 41.0876 39.6388 40.7728C51.4443 33.2457 66.7837 31.8232 80.471 40.8728C80.7658 41.0252 81.0085 41.262 81.1681 41.553C81.3278 41.8439 81.3972 42.1758 81.3675 42.5064C81.2897 43.914 81.3378 45.3179 81.3378 46.8774Z" fill="#201C3D"/>
<path d="M110.768 103.183C110.768 101.212 110.805 99.2412 110.768 97.2557C110.738 96.3259 110.975 95.9481 111.987 95.9851C114.013 96.0592 116.061 96.0889 118.073 95.9851C119.477 95.9074 119.184 96.8149 119.125 97.5372C119.066 98.2596 119.692 99.4227 118.11 99.3153C117.369 99.2634 116.628 99.3634 115.887 99.2931C114.95 99.2079 114.639 99.5042 114.624 100.497C114.624 101.608 115.106 101.708 115.954 101.63C116.382 101.577 116.815 101.577 117.243 101.63C117.795 101.716 118.647 101.234 118.829 102.064C119.01 102.894 119.306 104.12 118.688 104.716C118.006 105.372 116.81 104.931 115.843 104.931C115.024 104.931 114.643 105.083 114.632 106.042C114.632 107.068 114.887 107.524 115.961 107.387C116.392 107.357 116.824 107.357 117.254 107.387C119.029 107.387 119.703 108.42 119.14 110.15C118.947 110.736 118.547 110.673 118.132 110.673C116.039 110.673 113.946 110.636 111.857 110.691C110.883 110.721 110.746 110.247 110.768 109.454C110.798 107.357 110.768 105.264 110.768 103.183Z" fill="#201B3B"/>
<path d="M6.18561 95.2854C6.50418 95.3447 7.35986 95.4521 8.18592 95.6558C10.2529 96.1707 10.2899 96.3671 9.27867 98.2896C8.86379 99.0823 8.48225 99.4564 7.60064 98.9082C7.22166 98.7088 6.80541 98.5902 6.37823 98.56C5.67071 98.4711 4.94838 98.6044 4.67426 99.3342C4.35569 100.19 5.08914 100.527 5.69294 100.816C6.40833 101.168 7.14293 101.48 7.89328 101.749C9.72319 102.401 10.7604 103.709 10.7419 105.613C10.7233 107.517 10.001 109.206 8.04515 110.058C5.52995 111.14 3.12587 110.725 0.762546 109.599C-0.74139 108.884 0.43657 108.061 0.762546 107.376C1.03296 106.783 1.15891 105.609 2.37391 106.472C3.07571 106.98 3.90621 107.281 4.77057 107.339C5.51143 107.387 6.29674 107.18 6.53011 106.328C6.76347 105.476 6.15968 105.094 5.52254 104.791C4.9706 104.524 4.38903 104.324 3.81857 104.102C1.11075 103.053 0.158752 101.579 0.603265 99.1193C1.04778 96.6597 2.85176 95.2632 6.18561 95.2854Z" fill="#1F1B3B"/>
<path d="M80.9552 61.3614C81.0073 63.5338 80.3715 65.6671 79.1388 67.4566C77.9061 69.2462 76.1395 70.6004 74.0912 71.3259C74.9765 69.8442 75.8025 68.4885 76.6249 67.1179C74.7357 68.2551 73.7504 70.0813 72.4835 71.889C71.6945 70.1406 72.5946 68.5551 72.4835 66.9882C73.6503 63.0506 72.8539 59.0092 73.1169 55.0234C73.1725 54.1862 72.7761 53.1713 73.8578 52.623V65.1064C75.521 63.8692 76.8657 62.7579 78.4474 62.0171C79.0808 61.7207 78.8586 61.054 78.866 60.5354C78.9104 57.9016 78.9326 55.2679 78.9586 52.6305C79.8809 52.8675 79.6402 53.6714 79.6772 54.2603C79.7587 55.773 79.7587 57.2891 79.6772 58.8018C79.6476 59.9094 79.9402 60.791 80.9552 61.3614Z" fill="#EAB744"/>
<path d="M56.4501 20.9036C51.3588 23.5514 47.3646 27.9102 45.1705 33.2129C44.4297 34.965 43.3406 35.7096 41.4922 36.0096C42.4627 31.7645 44.5482 28.2306 47.2709 25.0264C48.9489 23.0595 50.9492 21.4444 52.9903 19.859C54.2275 18.8959 55.0906 18.8736 55.8722 20.2924C56.0018 20.5294 56.0018 20.9184 56.413 20.9369L56.4501 20.9036Z" fill="#211C3D"/>
<path d="M78.6222 35.9057C76.7701 35.4908 75.6588 34.9537 74.918 33.172C72.9362 28.3342 69.5394 24.5817 65.109 21.7628C64.7386 21.5294 63.6607 21.3553 64.3682 20.5293C64.846 19.9773 65.1683 18.629 66.2648 19.3439C72.3287 23.2927 76.596 28.612 78.6222 35.9057Z" fill="#211C3D"/>
<path d="M41.2453 61.7762C43.1789 63.0542 45.32 64.084 46.572 66.1843C46.961 66.1435 47.3129 66.1843 47.4129 66.6436C47.4129 66.7029 47.2981 66.7362 47.1462 66.7103C47.3499 68.3031 48.2056 69.8404 47.5166 71.7333C46.0571 70.1293 45.2237 68.192 43.3345 67.14C44.0976 68.4254 44.8643 69.707 45.683 71.0813C41.9157 70.2145 39.1486 66.1398 38.9375 61.3502C39.8858 60.5204 40.5155 61.4243 41.2453 61.7762Z" fill="#EAB744"/>
<path d="M67.6401 74.9267L67.3326 74.1859C67.3845 73.1005 68.1698 72.1744 68.0735 70.8039C66.6362 72.5189 66.1806 74.4859 65.2694 76.4418C63.8691 73.7747 64.3951 71.441 65.6213 69.1406C65.5583 68.8147 65.6213 68.5665 65.9917 68.5183C67.4289 66.4662 69.6219 65.1845 71.2962 63.3916C72.3853 64.6103 71.9296 65.9661 71.6407 67.3033C71.2147 70.3223 70.096 72.9783 67.6401 74.9267Z" fill="#EAB744"/>
<path d="M54.4632 69.029C55.3708 71.4294 56.1524 73.8445 54.8114 76.3449C53.8113 76.382 53.7817 75.5189 53.5483 74.9114C53.0456 73.4729 52.4262 72.0779 51.6961 70.7404C51.5406 70.544 51.3442 70.9293 51.5109 70.7404C51.5628 70.6885 51.6147 70.7144 51.685 70.8107C52.3851 71.7701 52.7111 72.8963 53.063 74.0038C53.1927 74.4039 53.3853 74.9262 52.9815 75.2077C52.4074 75.6115 52.1592 74.9299 51.7962 74.6743C51.6547 74.5532 51.5301 74.4136 51.4257 74.2594C49.7181 72.2184 48.4808 69.9773 48.4364 67.2213C47.803 65.3321 47.9511 64.732 49.1995 64.0801C51.2702 65.4025 52.7963 67.3102 54.4855 69.0438L54.4632 69.029Z" fill="#EAB744"/>
<path d="M42.1893 79.7312C40.4965 79.7053 39.1481 80.8944 37.4627 81.0203C36.3032 81.1055 35.1438 81.15 33.9807 81.1833C32.9435 81.2129 32.6657 80.9055 33.1843 79.8942C34.8067 76.7345 38.9296 74.4637 42.9784 74.7971L38.2924 77.8902C40.8854 77.3494 42.6376 76.1233 44.649 74.9601C44.5934 76.2677 43.9711 77.1197 43.4006 78.0087C43.1895 78.3384 42.4227 78.5088 42.9561 79.1459C42.9784 79.6831 42.7857 79.9831 42.1893 79.7312Z" fill="#E9B746"/>
<path d="M76.6572 78.1939C76.0497 77.2827 75.3755 76.4085 75.2422 74.9786C77.2536 76.0899 79.0391 77.3308 81.6432 77.9198L77.1091 74.8971C80.7282 74.297 85.4697 76.8678 86.7884 79.972C87.1922 80.9203 86.8477 81.1462 85.9475 81.187C83.6727 81.3238 81.3957 80.9557 79.2798 80.109C78.1204 79.8646 77.0573 79.4978 76.6572 78.1939Z" fill="#E9B745"/>
<path d="M54.4597 69.0585C54.4597 64.017 54.4597 58.9755 54.4597 53.934C54.4597 53.0264 54.3671 52.3374 55.7266 52.3263C57.0861 52.3152 57.0379 52.9153 57.0305 53.871C56.9972 58.1754 57.0305 62.4797 57.0305 66.7841C57.0305 69.3771 57.0305 69.3771 54.4375 69.0289L54.4597 69.0585Z" fill="#221D3E"/>
<path d="M66.0119 68.5252L65.6415 69.1475C63.356 69.2734 63.356 69.2734 63.3597 66.8101C63.3597 62.502 63.3597 58.1976 63.3597 53.8896C63.3597 52.9265 63.3596 52.3338 64.671 52.3301C66.0749 52.3301 65.8971 53.0969 65.9045 53.96C65.9341 58.8126 65.9699 63.6676 66.0119 68.5252Z" fill="#231E3F"/>
<path d="M73.2262 79.3829L70.2887 77.3159C72.3435 77.2614 74.3798 77.7171 76.2155 78.642C77.2231 79.1051 78.2973 79.4755 78.8381 80.5719C79.5197 81.4906 80.857 82.4722 80.3939 83.465C80.0235 84.2947 78.401 83.8354 77.3416 83.7761C74.356 83.6613 71.6444 82.8353 69.7886 80.2978C69.2737 79.594 68.6773 78.8161 68.9662 77.7826L72.5075 79.7496C73.2669 80.0756 74.1374 80.0793 74.5189 80.3423C74.2671 80.2163 73.5447 80.083 73.2262 79.3829Z" fill="#EAB744"/>
<path d="M42.1933 79.7314C42.3599 79.706 42.5175 79.6391 42.6516 79.5369C42.7856 79.4346 42.8917 79.3002 42.96 79.1461C44.8752 77.9014 46.9755 77.3162 49.7018 77.2939L46.7384 79.3869C46.4235 79.8203 45.9049 80.0203 45.679 80.2685C46.0272 79.7054 46.8977 80.1648 47.4681 79.7573L51.1465 77.7051C50.7538 80.1574 49.3536 81.665 47.3533 82.6726C45.0826 83.8135 42.6267 83.9024 40.1448 83.8098C39.278 83.7801 39.2261 83.3949 39.5817 82.7652C40.2485 81.5724 40.9745 80.4352 42.1933 79.7314Z" fill="#EAB744"/>
<path d="M87.0127 65.977C85.7311 67.6365 83.9604 68.4626 81.8823 68.8589L84.8457 65.2695C82.6639 66.2993 81.6564 68.0106 80.0561 69.3812C79.8487 66.6104 80.9525 64.7101 82.864 63.2173C84.2975 62.1503 85.9375 61.3934 87.6795 60.9947C88.187 60.8651 88.7908 60.3798 89.2353 60.791C89.6798 61.2022 89.1205 61.7986 89.0945 62.3246C89.0213 62.6221 88.8959 62.9043 88.7241 63.158C88.487 64.3064 88.1685 65.3991 87.0127 65.977Z" fill="#E9B745"/>
<path d="M31.2964 63.5466C30.8815 62.6724 30.1073 61.5648 30.7593 60.861C31.3223 60.2572 32.4632 61.05 33.3078 61.3278C37.7714 62.791 39.9755 65.4321 39.894 69.2845C38.3049 68.0695 37.2825 66.3397 35.3896 65.5988L38.4049 69.3031C35.8712 68.4696 34.0301 67.4509 32.641 65.6914C32.2855 65.4413 31.9834 65.1228 31.7525 64.7545C31.5216 64.3863 31.3666 63.9756 31.2964 63.5466Z" fill="#E9B745"/>
<path d="M27.8318 73.8705C30.1692 73.0593 32.4695 72.0184 35.6515 72.7111L30.973 74.9337C33.3697 74.7966 35.0477 73.9594 36.7702 73.2038C36.5183 75.167 34.818 76.8303 32.3621 77.397C30.3655 77.8563 28.3393 77.7008 26.3278 77.397C25.2573 77.2377 25.1536 76.734 25.8796 75.9709C26.5464 75.2671 27.1984 74.5447 27.8577 73.8298L27.8318 73.8705Z" fill="#E9B745"/>
<path d="M94.6428 76.9599C89.5716 78.8862 84.5931 77.3304 82.9336 73.2557C84.845 73.852 86.5416 74.8226 88.5308 74.7374L84.4672 72.8074C87.7417 71.6073 92.6647 73.6854 94.6428 76.9599Z" fill="#E9B746"/>
<path d="M96.8329 118.029C97.433 116.77 97.9442 115.807 98.3591 114.788C98.6406 114.088 99.0999 113.903 99.7815 113.921C100.582 113.943 100.582 114.521 100.708 115.051C101.008 116.307 101.341 117.551 101.615 118.811C101.708 119.226 102.074 119.859 101.245 119.922C100.615 119.978 99.8371 120.189 99.7297 119.126C99.6482 118.3 99.4889 117.485 99.2814 116.125C98.6628 117.429 98.285 118.3 97.8442 119.137C97.2515 120.248 96.4699 120.281 95.8476 119.215C95.3697 118.392 94.9845 117.511 94.5066 116.551C93.9176 117.422 94.014 118.251 93.9251 119.026C93.8325 119.855 93.3768 119.989 92.6656 119.955C91.7062 119.911 91.984 119.303 92.084 118.781C92.3248 117.514 92.6026 116.255 92.8249 114.984C92.9286 114.406 93.0212 113.914 93.788 113.899C94.4696 113.88 94.9437 114.036 95.2401 114.729C95.6698 115.777 96.1958 116.733 96.8329 118.029Z" fill="#1F1B3B"/>
<path d="M49.1892 64.0951C48.052 64.9285 48.7003 66.1954 48.4261 67.2363L47.1482 66.7103L46.5703 66.1843C46.6111 62.1392 46.637 58.0941 46.7 54.0528C46.7 53.3119 46.2554 52.3414 47.7927 52.334C49.1522 52.334 49.2337 52.9193 49.2189 53.975C49.1707 57.3496 49.1929 60.7205 49.1892 64.0951Z" fill="#231D3E"/>
<path d="M31.302 63.5466C31.9685 64.1036 32.4396 64.8589 32.6466 65.7025C32.1576 66.7064 33.1319 67.7436 32.6466 68.6474L30.5426 66.8138C30.0678 66.6899 29.6416 66.4252 29.3202 66.0544C29.6822 66.3824 29.9333 66.8147 30.0388 67.2916L31.3279 68.9363C28.4386 67.9955 26.5123 66.5693 25.2603 64.2653C25.0473 64.0837 24.8787 63.8558 24.7676 63.5989C24.6565 63.342 24.6058 63.0631 24.6194 62.7836C24.4305 62.2279 23.8786 61.613 24.3083 61.1055C24.8121 60.5276 25.5492 60.9499 26.1604 61.1426C27.6616 61.6189 29.07 62.3493 30.324 63.3021C30.5944 63.5207 30.813 64.1838 31.302 63.5466Z" fill="#E9B745"/>
<path d="M87.0156 65.9767L88.7344 63.1725C88.7566 63.843 88.9937 63.8949 89.4753 63.4615C90.7384 62.3502 92.2609 61.7056 93.8278 61.1352C95.1206 60.6647 95.7392 60.9277 95.4095 62.4132C95.1947 63.2392 95.3354 64.2245 94.3797 64.7209C93.324 66.7138 91.4978 67.7732 89.5642 68.7141C88.9456 68.0844 88.9233 68.0733 89.2234 67.6028C89.5234 67.1324 90.0791 66.7286 90.4124 66.21C89.7012 67.0065 89.0493 67.8658 88.0602 68.3585C87.6305 68.7882 87.249 69.1957 87.1786 68.114C87.1416 67.4102 87.7602 66.6323 87.0156 65.9767Z" fill="#E9B745"/>
<path d="M27.8582 73.8443C25.1858 75.1007 22.1279 75.2616 19.3384 74.2925C17.9308 73.8332 18.1938 73.359 19.0384 72.6441C20.7602 71.1323 23.012 70.3661 25.2986 70.5142C26.0394 70.5549 26.7803 70.5142 27.4989 70.5327C27.936 71.3143 27.2285 71.2735 26.8359 71.418C26.1654 71.6736 25.4801 71.8884 24.4429 72.2441C26.295 72.6849 27.6545 71.744 29.0955 71.6662C29.1473 72.7367 28.0175 73.0257 27.8508 73.8888L27.8582 73.8443Z" fill="#E9B749"/>
<path d="M95.5144 72.2782L92.3251 71.1225C94.6439 69.6964 100.104 70.9558 101.43 73.1524C101.667 73.5229 101.689 73.7636 101.297 74.0489C98.5482 76.0566 92.677 74.9342 90.8619 72.0375C90.8322 71.993 90.8619 71.9189 90.8359 71.7337C92.3214 71.6744 93.6771 72.7042 95.5144 72.2782Z" fill="#E8B749"/>
<path d="M56.4162 20.948C57.972 21.9926 58.3906 22.9409 56.9052 24.63C55.1366 26.6175 54.0253 29.1028 53.7232 31.7459C53.5602 33.2276 52.5045 33.2276 51.6266 33.1758C50.3671 33.0721 51.1265 31.9867 51.2006 31.457C51.7599 27.3638 53.8899 24.0188 56.4607 20.9072L56.4162 20.948Z" fill="#221D3E"/>
<path d="M72.0281 67.3104C71.6206 66.0324 71.8577 64.6951 71.6836 63.3949C71.6836 60.4686 71.6935 57.5385 71.7132 54.6047C71.7132 52.0932 71.7132 52.0932 74.247 52.6044C74.2173 56.5346 74.1618 60.4649 74.1766 64.3951C74.1766 65.536 73.9469 66.4473 72.8579 66.9881L72.0281 67.3104Z" fill="#261F40"/>
<path d="M69.0477 32.3272C69.0737 32.6976 69.1478 33.2422 68.6218 33.1051C67.9216 32.9199 66.7696 33.3718 66.5807 32.3643C65.9648 29.0963 64.5468 26.0325 62.4541 23.4481C61.7429 22.5331 63.0246 22.3368 63.3283 21.7626C63.5691 21.3107 63.9284 21.2662 64.3211 21.7441C66.8659 24.8409 68.6477 28.2747 69.0477 32.3272Z" fill="#231D3E"/>
<path d="M59.8404 0C61.9666 1.98549 63.5447 3.95987 63.1446 6.86773C63.0483 7.54561 63.0187 8.2309 62.5075 8.71987C61.9963 9.20883 61.1369 9.72742 60.5664 9.20142C60.0627 8.73838 60.4998 8.12718 61.1184 7.60488C62.0778 6.78623 61.4888 3.67835 60.3997 2.9412C60.2962 2.83757 60.1591 2.7743 60.0131 2.76275C59.8671 2.75121 59.7218 2.79216 59.6033 2.87822C58.5587 3.50795 57.8216 6.78253 58.7513 7.56413C59.3033 8.01975 59.5848 8.42352 59.5515 9.04584C59.5292 9.41627 59.1032 9.39034 58.8106 9.36441C58.0142 9.30143 57.2956 8.96435 57.0881 8.19386C56.5214 6.10465 56.5288 4.03766 57.9771 2.26702C58.5809 1.51505 59.3477 0.896435 59.8404 0Z" fill="#251F40"/>
<path d="M94.3828 64.7211L95.4126 62.4133C95.6534 63.5246 95.9571 62.5578 96.1053 62.4133C97.4893 60.8766 99.2693 59.7502 101.251 59.1572C101.417 62.9541 99.5132 65.373 96.6202 67.2288C96.0386 66.5361 96.6535 66.0138 96.8313 65.4545C96.535 65.8027 96.3609 66.3213 95.8682 66.5658C95.4978 66.7621 95.5793 67.3918 95.0385 67.4252C94.2754 66.6288 95.2941 65.436 94.3828 64.7211Z" fill="#E7B74C"/>
<path d="M24.6078 62.8062C24.8097 62.9966 24.9707 63.2262 25.0809 63.481C25.1911 63.7357 25.2482 64.0103 25.2486 64.2879C24.7523 65.2658 25.7005 66.403 24.793 67.4921L23.4261 65.451C23.1178 65.2626 22.8538 65.0099 22.6519 64.7102C22.952 64.9547 22.6519 65.6918 23.1076 66.1363L23.5965 67.1661C20.196 65.614 18.3439 62.4543 18.8921 59.1797C20.7383 59.8178 22.4012 60.8959 23.7373 62.3209C23.9521 62.5284 23.9707 63.2581 24.6078 62.8062Z" fill="#E8B74A"/>
<path d="M20.2728 68.0772C19.1615 68.8551 17.8465 68.4476 16.487 68.944C18.2799 69.2218 19.8209 69.0773 21.6989 68.981C20.0728 70.8887 18.2243 71.3851 16.1425 71.1517C15.4129 71.0543 14.6992 70.8613 14.02 70.5775C13.0828 70.2071 11.4566 69.9515 11.5381 69.0958C11.6418 67.966 13.2236 67.6141 14.3274 67.3919C16.3092 66.9807 18.3281 67.0437 20.2728 68.0772Z" fill="#E8B749"/>
<path d="M98.6016 69.1034H103.158C102.076 68.5811 100.861 68.7812 99.824 68.2329C102.047 66.7179 106.281 66.892 108.17 68.5589C108.54 68.8775 108.814 69.0516 108.277 69.5257C106.451 71.1519 102.002 71.7038 99.8907 70.474C99.3684 70.1591 98.8164 69.8628 98.6016 69.1034Z" fill="#E8B748"/>
<path d="M105.801 65.2809C107.09 64.929 108.238 65.0587 109.235 64.4141C108.409 63.9141 107.597 64.5327 106.782 64.3882C108.731 62.3286 111.798 61.51 114.135 62.4212C114.543 62.5805 115.195 62.562 114.876 63.3362C113.754 65.9181 108.457 67.1775 105.801 65.2809Z" fill="#E7B74B"/>
<path d="M13.1384 64.2318H10.5454C11.7049 65.0986 12.8754 64.9727 13.9756 65.1838C12.279 67.7435 6.90784 66.058 4.85938 62.9613C7.38569 61.487 10.1194 61.8277 13.1384 64.2318Z" fill="#E7B74B"/>
<path d="M41.2458 61.7768C40.4235 61.9323 39.7975 61.01 38.9381 61.3508C38.4713 58.8096 38.8677 56.2426 38.7343 53.694C38.6751 52.5605 39.4752 52.8606 40.0975 52.7902C40.9421 52.6939 41.2829 52.9569 41.2606 53.8792C41.2051 56.5093 41.2458 59.143 41.2458 61.7768Z" fill="#272041"/>
<path d="M111.009 52.3746C111.435 52.671 111.598 52.5154 111.75 52.0486C112.187 50.6706 113.132 49.6334 114.128 48.6259C114.939 47.8035 115.473 47.885 115.643 49.0556C116.014 51.5041 115.158 53.5229 113.139 55.5677C113.332 54.4898 113.443 53.8526 113.617 52.8858C112.698 53.9971 112.761 55.075 112.42 56.0196C112.372 56.053 112.313 56.1233 112.272 56.1122C111.639 55.99 111.55 55.5232 111.58 55.0009C111.272 55.4566 110.961 55.7418 110.635 55.0009C110.428 54.0749 110.242 53.1747 111.009 52.3746Z" fill="#E6B74F"/>
<path d="M15.2502 62.8062C13.9685 61.2615 13.1091 59.539 13.1498 57.4905C13.1721 56.5682 13.3943 55.9385 14.5612 56.7312C17.4579 58.6981 18.6359 61.2319 17.8543 64.1397C16.9726 64.3583 16.9986 63.5952 16.743 63.1247C16.3726 62.458 16.2873 61.643 15.9169 61.2504C16.1355 61.3763 16.1984 61.8912 16.354 62.3357C16.4874 62.7062 16.8504 63.2099 16.354 63.4841C15.7465 63.7767 15.5169 63.1766 15.2502 62.8062Z" fill="#E7B74B"/>
<path d="M102.13 64.1322C101.223 61.0354 103.279 57.1867 106.331 56.2828C106.401 56.2643 106.52 56.4125 106.616 56.4829C107.546 58.9351 106.812 60.9984 105.134 62.8357C104.675 63.1876 104.149 63.884 103.612 63.3876C102.941 62.769 103.612 62.1023 103.908 61.5911C102.856 62.0319 103.76 63.9803 102.13 64.1322Z" fill="#E8B749"/>
<path d="M8.32199 53.1153C8.84799 52.8337 8.5998 52.004 9.25546 51.8262C12.4819 54.0487 13.5524 56.9158 12.1263 59.7681C11.2817 59.1977 11.8003 58.0123 11.0409 57.453C10.7298 57.6789 10.9446 58.0086 10.889 58.2864C10.9705 58.4568 11.0076 58.6569 10.8001 58.7161C10.4556 58.8124 10.2556 58.5828 10.1149 58.2975C9.00357 57.1863 8.93319 55.6416 8.29976 54.3303C8.21458 54.2529 8.14692 54.1582 8.10131 54.0526C8.0557 53.9469 8.03319 53.8328 8.03529 53.7177C8.0374 53.6027 8.06406 53.4894 8.11351 53.3855C8.16295 53.2816 8.23403 53.1895 8.32199 53.1153Z" fill="#E5BA5B"/>
<path d="M80.5875 61.3611C79.9688 61.0351 79.4465 61.7315 78.6094 61.4611C78.6094 58.5496 78.6094 55.575 78.6094 52.6042C81.132 52.0634 81.132 52.0634 81.132 54.5971C81.132 56.306 81.132 58.0162 81.132 59.7275C81.132 60.335 81.2172 60.9537 80.5875 61.3611Z" fill="#282141"/>
<path d="M80.2176 114.692C79.5101 114.692 78.8063 114.718 78.0988 114.692C77.3912 114.666 76.9541 114.718 76.9615 115.64C76.9615 116.633 77.5653 116.485 78.1691 116.514C78.7729 116.544 79.3545 116.348 80.0213 116.851C79.2804 117.396 78.6025 117.222 77.9913 117.203C77.1505 117.166 76.9615 117.522 76.9615 118.292C76.9615 119.063 77.2838 119.218 77.9617 119.215C78.7026 119.215 79.5101 119.044 80.2287 119.385V119.952C78.6507 119.952 76.7245 120.511 75.5762 119.807C74.1352 118.93 75.2057 116.807 74.9946 115.236C74.9316 114.759 74.739 113.966 75.591 113.958C77.1357 113.958 78.71 113.692 80.2287 114.118L80.2176 114.692Z" fill="#1F1B3B"/>
<path d="M8.3202 53.1157L8.29797 54.3307C8.12758 54.7641 7.95348 55.1975 7.73122 55.7495C6.94221 55.0679 7.33857 53.9232 6.61994 53.3157C6.05689 53.9344 6.99036 54.553 6.55696 55.316C5.67646 54.5169 5.01134 53.5089 4.62292 52.3851C4.23449 51.2613 4.13527 50.0577 4.33439 48.8854C4.4307 48.2075 4.70482 47.626 5.51235 48.3705C6.89034 49.6818 8.21648 51.0339 8.3202 53.1157Z" fill="#E7B74D"/>
<path d="M111.659 59.8089C111.33 59.9126 111.044 60.3645 110.641 59.9459C110.688 59.5162 110.839 59.1045 111.082 58.7467C111.325 58.389 111.651 58.0962 112.033 57.8938C113.415 56.6343 114.893 55.5971 116.93 55.7897C116.23 59.6126 113.723 61.8648 110.718 61.4054C110.818 60.6646 111.633 60.6646 111.967 60.1904C112.236 59.765 112.584 59.3953 112.993 59.1014C112.595 59.4169 112.143 59.6567 111.659 59.8089Z" fill="#E8B749"/>
<path d="M9.06728 60.9319C9.59699 61.6505 9.01542 61.6172 8.58202 61.6098C6.84842 61.5801 5.5445 60.7244 4.54435 59.3872C3.69875 58.3321 3.13989 57.0766 2.92188 55.7422C5.92604 55.7422 7.73743 57.3795 9.07097 59.7576C8.50422 60.2132 8.50423 60.2132 7.4448 59.5131C7.98933 60.0428 8.69315 60.3022 9.06728 60.9319Z" fill="#E8B749"/>
<path d="M111.013 52.3745C111.013 53.4006 111.013 54.423 111.013 55.4491C111.591 56.7085 110.717 57.5272 110.117 58.4125C109.657 58.7088 109.179 59.1237 108.891 58.2199C108.891 58.1865 108.82 58.394 108.757 58.4829C108.579 59.1126 108.476 59.9312 107.587 59.7386C106.875 59.583 106.898 58.8348 106.905 58.2236C106.912 57.6124 106.812 57.0086 107.194 56.4714C107.72 54.7915 108.71 53.2944 110.05 52.1523C110.469 51.8003 110.872 51.4892 111.013 52.3745Z" fill="#E7B84E"/>
<path d="M25.1489 114.581C23.2967 114.781 21.3261 114.244 21.0371 116.522C20.6667 119.53 23.3115 118.796 25.0266 119.337C23.2337 120.367 20.2963 120.019 19.3591 118.707C18.9262 118.173 18.7021 117.5 18.7287 116.813C18.7553 116.126 19.0306 115.472 19.5035 114.973C20.5481 113.74 23.3745 113.473 25.1489 114.581Z" fill="#1F1B3B"/>
<path d="M119.996 114.17C118.933 115.896 117.207 117.163 117.622 119.433C117.729 120.03 117.088 119.963 116.677 119.956C116.266 119.948 115.566 120.048 115.685 119.489C116.136 116.974 114.014 115.881 112.836 114.162C115.133 113.173 115.522 115.344 116.599 116.363C117.648 115.533 117.603 113.158 119.996 114.17Z" fill="#1F1B3B"/>
<path d="M111.36 57.7905C110.864 56.994 110.427 58.3646 109.797 58.3054C108.912 59.1055 109.386 57.5164 108.819 57.7497C109.305 59.8649 108.023 61.028 106.5 62.0689C106.004 62.4097 105.537 62.7875 105.059 63.1505C104.248 63.6284 103.067 63.6321 102.804 64.8101C102.658 64.8208 102.52 64.8765 102.407 64.9693C97.405 68.1336 91.7111 70.04 85.8121 70.5258C79.7593 71.0629 73.8472 71.9334 68.4946 75.0598C68.1834 75.2413 67.8315 75.4895 67.6389 74.9116C67.5759 74.6523 67.6722 74.3226 67.3314 74.1708C66.5906 74.756 67.3314 75.9044 66.2868 76.4934C64.3643 77.6046 62.8307 79.216 61.3935 80.8792C60.6822 81.6979 60.2489 81.9275 59.4561 80.9792C58.1152 79.3827 56.4297 78.1418 54.811 76.8379C53.8422 75.6892 52.5107 74.9052 51.0363 74.6153C46.9616 72.6854 42.7276 71.2814 38.2306 70.9666C31.6222 70.5147 25.2657 69.2293 19.3648 66.114L17.5682 64.9212C16.9977 63.8618 15.9087 63.5728 14.9122 63.1431C13.2786 61.7652 11.0709 60.8613 10.8894 58.2794C10.6375 58.7462 10.3745 58.3535 10.1152 58.2794C9.81514 59.0499 9.37433 57.6534 9.00391 58.4239C11.8006 61.5836 14.7307 64.6026 18.635 66.4807C19.1788 66.8572 19.7468 67.1975 20.3353 67.4994C22.7097 68.5292 25.1027 69.5145 27.4882 70.5147C31.1925 71.074 34.8783 71.5963 38.6011 71.9964C46.3319 72.8595 53.1292 75.8784 58.6634 81.5052C59.5191 82.3757 59.8377 82.9869 58.9931 84.1205C58.2343 85.2379 57.6218 86.4479 57.1706 87.721C56.9928 88.1655 56.2297 88.9286 57.1484 89.2583C57.9115 89.5324 57.83 88.5656 58.0263 88.147C58.7079 86.6468 59.3302 85.1206 60.5341 83.7537C61.7114 85.2022 62.6528 86.8274 63.3234 88.5693C63.4642 88.9397 63.5271 89.5398 64.1235 89.3101C64.7199 89.0805 64.3754 88.5693 64.2421 88.1989C63.7719 86.7321 63.0291 85.3673 62.0528 84.176C61.1119 83.0647 61.312 82.3683 62.2269 81.3978C67.587 75.6303 74.2881 72.6113 82.03 71.9704C89.6015 71.3444 96.8212 69.7775 103.196 65.3879C105.941 63.8803 108.078 61.6466 110.234 59.4352C110.905 59.0795 111.831 58.5424 111.36 57.7905Z" fill="#E7B84E"/>
<path d="M85.4883 50.2524C77.4463 46.5481 69.3895 42.9105 61.3661 39.1877C60.8869 38.9375 60.3536 38.8087 59.8131 38.8126C59.2725 38.8165 58.7411 38.9529 58.2656 39.2099C50.2532 42.9587 42.2112 46.6407 34.1878 50.3598C33.7877 50.545 33.2284 50.5932 33.0469 51.2155H86.9552C86.5477 50.5598 85.9662 50.4709 85.4883 50.2524ZM75.2052 48.6781H44.1708C45.8118 47.8557 47.1009 47.1741 48.4196 46.5592C51.8127 44.9738 55.2318 43.4291 58.6212 41.8363C59.3843 41.4658 60.0251 41.3436 60.8438 41.7363C65.6223 43.9848 70.4341 46.1814 75.2312 48.3669C75.2312 48.4706 75.2052 48.5743 75.2052 48.6781Z" fill="#211C3D"/>
<path d="M20.334 95.3151C15.8481 95.367 12.3698 98.7231 12.3439 103.035C12.318 107.41 15.8407 110.762 20.4674 110.766C25.094 110.769 28.5427 107.432 28.5205 102.987C28.4982 98.586 24.9532 95.2596 20.334 95.3151ZM20.5711 107.01C20.0356 107.03 19.5016 106.943 19.0004 106.753C18.4992 106.564 18.041 106.276 17.6529 105.906C17.2648 105.537 16.9546 105.093 16.7407 104.602C16.5268 104.111 16.4135 103.582 16.4075 103.046C16.4313 101.993 16.8615 100.991 17.6079 100.249C18.3544 99.5064 19.3592 99.0818 20.4118 99.0639C21.4616 99.0815 22.4662 99.4944 23.225 100.22C23.9837 100.946 24.4408 101.931 24.505 102.979C24.568 105.083 22.764 106.932 20.5711 107.01Z" fill="#1F1B3B"/>
<path d="M65.1556 95.6114C60.6363 95.6374 57.1395 98.9453 57.1173 103.246C57.0951 107.673 60.5586 111.025 65.163 111.025C69.7674 111.025 73.2235 107.828 73.2865 103.513C73.3531 99.0157 69.8304 95.5892 65.1556 95.6114ZM65.1556 107.232C64.1062 107.223 63.1013 106.807 62.3524 106.072C61.6034 105.336 61.1689 104.339 61.1401 103.29C61.1692 102.24 61.5998 101.241 62.3434 100.499C63.087 99.7568 64.0868 99.328 65.137 99.3009C65.6732 99.2969 66.2049 99.3997 66.701 99.603C67.1972 99.8064 67.6479 100.106 68.0271 100.486C68.4062 100.865 68.7062 101.315 68.9096 101.812C69.113 102.308 69.2157 102.839 69.2118 103.376C69.1751 104.419 68.7317 105.406 67.9765 106.127C67.2213 106.847 66.2142 107.244 65.1704 107.232H65.1556Z" fill="#1F1B3B"/>
<path d="M38.6582 104.768C41.2698 103.179 42.0995 101.434 41.4179 99.0489C40.8178 96.9597 39.1398 95.9558 36.1838 95.9336C34.8947 95.9336 33.5908 96.0114 32.3165 95.9151C31.146 95.8262 30.7459 96.1522 30.7792 97.3968C30.8682 100.953 30.8089 104.516 30.8089 108.076C30.8089 110.691 30.8089 110.643 33.513 110.577C34.4724 110.554 34.7873 110.269 34.7725 109.306C34.7725 108.154 34.565 106.961 34.9762 105.665C38.7472 110.98 38.7471 110.98 42.9108 110.343L38.6582 104.768ZM35.6133 102.409C33.9983 102.442 35.0095 101.146 34.6761 100.623C34.7502 99.8046 34.3354 98.7933 35.7356 98.9415C36.8469 99.0563 37.6322 99.5194 37.6062 100.745C37.5803 101.972 36.6839 102.386 35.6133 102.409Z" fill="#1F1B3B"/>
<path d="M53.0153 102.835C54.4377 101.249 54.7045 99.5488 53.8228 97.7967C52.982 96.1261 51.3336 96.0038 49.6889 96.0186C48.459 96.0186 47.2292 96.0779 46.0068 96.0001C44.9585 95.9334 44.4918 96.1483 44.5251 97.3707C44.6066 101.356 44.5955 105.346 44.5251 109.332C44.5066 110.443 44.9252 110.673 45.9142 110.621C47.6886 110.528 49.4703 110.554 51.2484 110.499C53.7487 110.421 55.1712 109.387 55.6046 107.365C56.0639 105.194 55.4712 104.131 53.0153 102.835ZM49.048 98.9487C49.9815 99.0043 50.7112 99.271 50.7594 100.293C50.8076 101.316 50.0889 101.653 49.2332 101.775C48.2961 101.901 48.2294 101.245 48.3257 100.605C48.422 99.9637 47.8293 99.0043 49.048 98.9487ZM49.6703 107.628C48.4405 107.817 48.2146 107.172 48.2961 106.146C48.359 105.361 48.1108 104.42 49.4592 104.62C50.4668 104.739 51.7114 104.672 51.7596 106.102C51.804 107.461 50.6446 107.476 49.6703 107.628Z" fill="#1F1B3B"/>
<path d="M63.5096 17.3176C63.2763 15.9878 63.1133 14.6394 62.991 13.2948C62.7799 11.0167 62.2502 10.5092 60.0276 10.4869C57.805 10.4647 57.1827 11.0352 56.9679 13.1985C56.8234 14.6802 56.5975 16.1249 56.3789 17.5843C56.3109 17.9184 56.3238 18.2638 56.4165 18.5919C56.5091 18.9199 56.6789 19.221 56.9117 19.4701C57.1444 19.7191 57.4334 19.9089 57.7544 20.0236C58.0754 20.1382 58.4192 20.1744 58.757 20.1292C59.4838 20.0024 60.2254 19.985 60.9574 20.0773C62.7984 20.3514 63.8393 19.1846 63.5096 17.3176ZM61.8353 15.9952C61.8353 18.5215 61.2908 18.9179 58.7644 18.4734C57.994 18.3363 58.1199 17.8992 58.1162 17.4362C58.1162 16.0285 58.1421 14.6209 58.1162 13.217C58.0977 12.4947 58.2236 12.1576 59.0867 12.1057C61.8538 11.9501 61.8501 11.8983 61.8501 15.4396L61.8353 15.9952Z" fill="#211C3D"/>
<path d="M62.2178 115.203C61.3806 114.092 60.1212 114.062 58.884 113.966C55.6094 113.703 55.6094 113.703 55.6094 116.955C55.6094 120.045 55.6094 120.052 58.7321 119.87C59.4041 119.856 60.0731 119.775 60.7287 119.626C62.6142 119.141 63.3995 116.748 62.2178 115.203ZM58.5691 119.111C56.7466 119 58.1653 117.455 57.5467 116.737C58.0394 116.088 56.8799 114.666 58.658 114.751C60.1397 114.822 60.6064 115.744 60.6139 117.089C60.6213 118.433 59.8285 119.17 58.5691 119.111Z" fill="#1F1B3B"/>
<path d="M41.4121 114.684C40.7935 113.592 39.66 113.595 39.0413 114.684C38.119 116.325 37.2744 118.018 36.2891 119.87C37.304 119.919 37.9375 120.03 38.6265 119.252C38.8223 119.042 39.0583 118.874 39.3206 118.757C39.5828 118.641 39.8658 118.578 40.1527 118.573C40.4397 118.568 40.7246 118.621 40.9906 118.729C41.2566 118.837 41.4982 118.997 41.701 119.2C42.5048 120.089 43.1383 119.941 44.1532 119.837C43.179 118 42.3344 116.329 41.4121 114.684ZM39.2747 118.07C39.2303 117.107 39.7155 116.399 40.1897 115.433C40.6749 116.359 41.0861 117.096 41.112 117.981C40.5008 118.241 39.9044 118.1 39.2747 118.07Z" fill="#1F1B3B"/>
<path d="M4.98595 114.625C4.38215 113.554 3.41534 113.514 2.80414 114.488C1.74472 116.17 0.907548 117.988 0 119.703C1.77064 120.815 2.26701 118.655 3.74872 118.674C5.23044 118.692 5.87127 120.774 7.66044 119.715C6.74919 117.97 5.91572 116.27 4.98595 114.625ZM2.93749 117.903C2.79302 117.225 3.35237 116.399 3.79317 115.084C4.28584 116.37 4.57107 117.118 4.93039 118.048C4.08581 118.088 3.04491 118.418 2.93749 117.903Z" fill="#1F1B3B"/>
</g>
<defs>
<clipPath id="clip0_548_2360">
<rect width="120" height="120.159" fill="white"/>
</clipPath>
</defs>
</svg>
